<svg width="454" height="347" viewBox="0 0 454 347" fill="none" xmlns="http://www.w3.org/2000/svg">
<path d="M309.44 250.43H304.86V269.91H309.44V250.43Z" fill="#525252"/>
<path d="M310.24 250.43V255.76H313.82V264.57H310.24V269.91H319.25V250.43H310.24Z" fill="#525252"/>
<path d="M312.55 256.57H304.86V263.77H312.55V256.57Z" fill="#525252"/>
<path d="M323.83 250.43H319.25V269.91H323.83V250.43Z" fill="#525252"/>
<path d="M324.63 250.43V255.76H328.22V264.57H324.63V269.91H333.65V250.43H324.63Z" fill="#525252"/>
<path d="M326.94 256.57H319.25V263.77H326.94V256.57Z" fill="#525252"/>
<path d="M338.23 250.43H333.65V269.91H338.23V250.43Z" fill="#525252"/>
<path d="M339.03 250.43V255.76H342.61V264.57H339.03V269.91H348.05V250.43H339.03Z" fill="#525252"/>
<path d="M341.34 256.57H333.65V263.77H341.34V256.57Z" fill="#525252"/>
<path d="M352.63 250.43H348.05V269.91H352.63V250.43Z" fill="#525252"/>
<path d="M353.43 250.43V255.76H357.01V264.57H353.43V269.91H362.44V250.43H353.43Z" fill="#525252"/>
<path d="M355.74 256.57H348.05V263.77H355.74V256.57Z" fill="#525252"/>
<path d="M367.02 250.43H362.44V269.91H367.02V250.43Z" fill="#525252"/>
<path d="M367.82 250.43V255.76H371.4V264.57H367.82V269.91H376.84V250.43H367.82Z" fill="#525252"/>
<path d="M370.13 256.57H362.44V263.77H370.13V256.57Z" fill="#525252"/>
<path d="M381.42 250.43H376.84V269.91H381.42V250.43Z" fill="#525252"/>
<path d="M382.22 250.43V255.76H385.8V264.57H382.22V269.91H391.24V250.43H382.22Z" fill="#525252"/>
<path d="M384.53 256.57H376.84V263.77H384.53V256.57Z" fill="#525252"/>
<path d="M395.81 250.43H391.23V269.91H395.81V250.43Z" fill="#525252"/>
<path d="M396.61 250.43V255.76H400.2V264.57H396.61V269.91H405.63V250.43H396.61Z" fill="#525252"/>
<path d="M398.92 256.57H391.23V263.77H398.92V256.57Z" fill="#525252"/>
<path d="M411.46 269.58C410.423 269.732 409.378 269.818 408.33 269.84L406.78 269.91H405.63V250.43H406.78L407.51 250.38C407.989 250.381 408.467 250.34 408.94 250.26L411.46 269.58Z" fill="#525252"/>
<path d="M409.43 250.19L410.28 255.45C411.26 255.3 412.229 255.083 413.18 254.8L415.78 263.23C414.437 263.621 413.071 263.928 411.69 264.15L412.54 269.42C416.63 268.766 420.578 267.413 424.21 265.42L414.72 248.42C413.068 249.301 411.28 249.899 409.43 250.19Z" fill="#525252"/>
<path d="M414.14 262.82C412.725 263.178 411.289 263.442 409.84 263.61C408.41 263.69 406.84 263.8 405.63 263.77V256.57C406.99 256.57 407.97 256.49 409.11 256.45C410.205 256.321 411.291 256.12 412.36 255.85L414.14 262.82Z" fill="#525252"/>
<path d="M429.41 261.86C428.58 262.5 427.74 263.13 426.89 263.74C426.04 264.35 425.11 264.85 424.21 265.39L414.72 248.39L415.95 247.64C416.33 247.35 416.71 247.06 417.1 246.78L429.41 261.86Z" fill="#525252"/>
<path d="M417.47 246.43L420.97 250.43L422.07 249.43L423.07 248.33L429.69 254.13C429.22 254.65 428.76 255.13 428.28 255.68L426.73 257.09L430.23 261.09C433.362 258.39 435.995 255.161 438.01 251.55L421.01 242.01C420.109 243.686 418.909 245.184 417.47 246.43Z" fill="#525252"/>
<path d="M428.12 254.7C426.082 256.789 423.759 258.58 421.22 260.02L417.71 253.73C419.635 252.648 421.399 251.302 422.95 249.73L428.12 254.7Z" fill="#525252"/>
<path d="M440.6 245.86C439.913 247.85 439.05 249.774 438.02 251.61L421.02 242.07C421.477 241.233 421.865 240.36 422.18 239.46L440.6 245.86Z" fill="#525252"/>
<path d="M422.37 239L427.46 240.6L427.84 239.16L428.02 238.44L428.13 237.7L436.82 239.15L436.66 240.15L436.41 241.15C436.23 241.82 436.06 242.5 435.87 243.15L440.96 244.74C441.25 243.74 441.5 242.74 441.75 241.74C442 240.74 442.11 239.74 442.27 238.69C442.426 237.67 442.513 236.641 442.53 235.61L442.6 234.07V233H423.12V234.11L423.07 234.82C423.073 235.292 423.037 235.764 422.96 236.23C422.86 236.69 422.85 237.17 422.72 237.62C422.59 238.07 422.49 238.55 422.37 239Z" fill="#525252"/>
<path d="M435.77 240.44C435.128 243.293 434.084 246.04 432.67 248.6L426.39 245.08C427.458 243.144 428.246 241.067 428.73 238.91L435.77 240.44Z" fill="#525252"/>
<path d="M442.6 228.43H423.12V233.01H442.6V228.43Z" fill="#525252"/>
<path d="M423.12 227.64H428.45V224.06H437.27V227.64H442.6V218.62H423.12V227.64Z" fill="#525252"/>
<path d="M436.46 225.33H429.26V233.02H436.46V225.33Z" fill="#525252"/>
<path d="M442.44 213.17C442.51 214.17 442.56 215.26 442.6 216.3V218.62H423.12V216.36C423.12 215.88 423.05 215.36 423.04 214.91L442.44 213.17Z" fill="#525252"/>
<path d="M423 214.42L428.3 213.78L428.07 212.31C428.01 211.82 427.84 211.31 427.73 210.86L436.25 208.61C436.41 209.29 436.63 209.96 436.73 210.61L437.05 212.68L442.34 212.04C441.865 207.92 440.652 203.92 438.76 200.23L421.37 209.03C422.245 210.709 422.797 212.537 423 214.42Z" fill="#525252"/>
<path d="M435.81 210.22C435.96 210.94 436.04 211.66 436.16 212.38C436.16 212.74 436.28 213.1 436.31 213.47L436.37 214.56C436.37 215.27 436.46 216.05 436.46 216.7V218.62H429.26V216.7C429.26 216.07 429.21 215.57 429.19 215V214.17C429.19 213.9 429.11 213.63 429.07 213.35C428.97 212.81 428.92 212.26 428.8 211.72L435.81 210.22Z" fill="#525252"/>
<path d="M435.42 194.94L436.35 196.2C436.66 196.63 436.91 197.09 437.19 197.53C437.761 198.412 438.278 199.327 438.74 200.27L421.35 209.07C421.15 208.635 420.916 208.217 420.65 207.82C420.52 207.62 420.42 207.4 420.28 207.21L419.84 206.64L435.42 194.94Z" fill="#525252"/>
<path d="M419.55 206.24L423.71 202.9C423.396 202.51 423.062 202.136 422.71 201.78C422.407 201.399 422.072 201.045 421.71 200.72L427.78 194.33C428.299 194.794 428.787 195.292 429.24 195.82C429.723 196.323 430.18 196.85 430.61 197.4L434.78 194.07C432.192 190.848 429.07 188.095 425.55 185.93L415.34 202.52C416.943 203.513 418.367 204.771 419.55 206.24Z" fill="#525252"/>
<path d="M428.23 195.93C430.244 198.04 431.929 200.44 433.23 203.05L426.81 206.29C425.817 204.313 424.533 202.496 423 200.9L428.23 195.93Z" fill="#525252"/>
<path d="M419.9 183.11C420.884 183.481 421.845 183.909 422.78 184.39C423.726 184.848 424.645 185.362 425.53 185.93L415.32 202.52C414.924 202.252 414.506 202.018 414.07 201.82C413.652 201.594 413.217 201.4 412.77 201.24L419.9 183.11Z" fill="#525252"/>
<path d="M412.3 201.07L414.1 196.07C413.17 195.728 412.218 195.451 411.25 195.24L413.05 186.61C414.406 186.912 415.742 187.3 417.05 187.77L418.85 182.77C414.962 181.386 410.867 180.669 406.74 180.65V200.13C408.632 200.135 410.511 200.452 412.3 201.07Z" fill="#525252"/>
<path d="M414.29 187.74C417.126 188.435 419.828 189.59 422.29 191.16L418.52 197.29C417.579 196.709 416.6 196.191 415.59 195.74C414.567 195.337 413.518 195.003 412.45 194.74L414.29 187.74Z" fill="#525252"/>
<path d="M403.91 180.33C404.38 180.38 404.85 180.5 405.33 180.53C405.81 180.56 406.33 180.53 406.77 180.61V200.09C405.77 200.09 404.68 200 403.64 199.93C402.6 199.86 401.56 199.66 400.52 199.51L403.91 180.33Z" fill="#525252"/>
<path d="M399.41 199.31L400.5 194.09C399.142 193.793 397.806 193.405 396.5 192.93L399.5 184.64C400.431 184.977 401.383 185.254 402.35 185.47L403.45 180.25C401.61 179.856 399.853 179.142 398.26 178.14L388 194.7C391.506 196.89 395.367 198.45 399.41 199.31Z" fill="#525252"/>
<path d="M400.23 185.77C402.354 186.383 404.549 186.719 406.76 186.77V193.96C403.838 193.922 400.935 193.488 398.13 192.67L400.23 185.77Z" fill="#525252"/>
<path d="M395.94 176.42L396.47 176.91L397.05 177.33L397.62 177.77C397.81 177.91 398.03 178.02 398.23 178.14L388 194.7C387.55 194.42 387.1 194.16 386.67 193.86L385.4 192.92L384.15 191.97C383.75 191.64 383.36 191.28 382.97 190.97L395.94 176.42Z" fill="#525252"/>
<path d="M382.13 190.19L385.81 186.33C385.291 185.863 384.803 185.361 384.35 184.83C383.862 184.332 383.404 183.804 382.98 183.25L389.88 177.76C390.189 178.155 390.523 178.529 390.88 178.88C391.186 179.262 391.52 179.619 391.88 179.95L395.56 176.09C394.198 174.784 393.069 173.255 392.22 171.57L374.8 180.29C376.654 183.988 379.134 187.338 382.13 190.19Z" fill="#525252"/>
<path d="M390 179.1C391.44 180.766 393.126 182.203 395 183.36L391.21 189.48C388.72 187.952 386.477 186.054 384.56 183.85L390 179.1Z" fill="#525252"/>
<path d="M391.17 168.92C391.448 169.832 391.802 170.718 392.23 171.57L374.81 180.29C373.869 178.411 373.093 176.453 372.49 174.44L391.17 168.92Z" fill="#525252"/>
<path d="M372.21 173.38L377.37 172.03C377.177 171.372 377.017 170.704 376.89 170.03L376.58 167.95L385.33 166.95L385.55 168.43C385.61 168.92 385.79 169.43 385.89 169.87L391.05 168.52C390.915 168.072 390.814 167.614 390.75 167.15C390.665 166.687 390.605 166.22 390.57 165.75C390.57 165.26 390.52 164.83 390.49 164.3V162H371V164.25C371 165.25 371.08 166.25 371.14 167.31C371.2 168.37 371.4 169.36 371.54 170.38C371.699 171.393 371.923 172.395 372.21 173.38Z" fill="#525252"/>
<path d="M384.69 168.05C385.04 170.235 385.732 172.351 386.74 174.32L380.3 177.54C378.977 174.932 378.062 172.136 377.59 169.25L384.69 168.05Z" fill="#525252"/>
<path d="M390.49 157.39H371.01V161.97H390.49V157.39Z" fill="#525252"/>
<path d="M371.01 156.59H376.34V153.01H385.16V156.59H390.49V147.57H371.01V156.59Z" fill="#525252"/>
<path d="M384.35 154.28H377.15V161.97H384.35V154.28Z" fill="#525252"/>
<path d="M390.49 142.99H371.01V147.57H390.49V142.99Z" fill="#525252"/>
<path d="M371.01 142.2H376.34V138.61H385.16V142.2H390.49V133.18H371.01V142.2Z" fill="#525252"/>
<path d="M384.35 139.88H377.15V147.57H384.35V139.88Z" fill="#525252"/>
<path d="M379.74 128.62L360.01 107.88V79.04" stroke="#B6B6B6" stroke-width="9" stroke-linecap="round" stroke-linejoin="round"/>
<path d="M381.13 128.62L400.86 107.88V79.04" stroke="#B6B6B6" stroke-width="9" stroke-linecap="round" stroke-linejoin="round"/>
<path d="M384.114 143.577C392.112 142.284 397.548 134.753 396.256 126.754C394.963 118.756 387.432 113.32 379.433 114.613C371.435 115.905 365.999 123.437 367.292 131.435C368.584 139.433 376.116 144.869 384.114 143.577Z" fill="#525252" stroke="#B6B6B6" stroke-miterlimit="10"/>
<path d="M389.545 132.358C391.34 128.05 389.303 123.103 384.995 121.308C380.688 119.513 375.74 121.55 373.945 125.858C372.15 130.166 374.187 135.113 378.495 136.908C382.803 138.703 387.75 136.666 389.545 132.358Z" fill="white" stroke="#B6B6B6" stroke-miterlimit="10"/>
<path d="M179.51 246.89H174.92V266.37H179.51V246.89Z" fill="#525252"/>
<path d="M174.13 266.37V261.03H170.53V252.22H174.13V246.89H165.09V266.37H174.13Z" fill="#525252"/>
<path d="M179.52 253.03H171.81V260.23H179.52V253.03Z" fill="#525252"/>
<path d="M161.56 246.69C162.13 246.77 162.72 246.75 163.3 246.8H164.16H164.6H165.09V266.28H164.43H163.72L162.29 266.21C161.34 266.15 160.39 266.14 159.44 266.02L161.56 246.69Z" fill="#525252"/>
<path d="M158.46 265.91L159.15 260.63L157.15 260.32C156.474 260.246 155.806 260.119 155.15 259.94L157.08 251.34C157.595 251.484 158.119 251.587 158.65 251.65L160.22 251.89L160.91 246.6C159.786 246.468 158.673 246.254 157.58 245.96L155.93 245.55L154.34 244.95L147.48 263.19L150.13 264.14L152.86 264.86C154.699 265.342 156.571 265.693 158.46 265.91Z" fill="#525252"/>
<path d="M158.1 252.37C159.25 252.52 160.4 252.76 161.56 252.86L165.09 253.03V260.23C163.73 260.23 162.3 260.1 160.91 260.03C159.52 259.96 158.14 259.64 156.75 259.44L158.1 252.37Z" fill="#525252"/>
<path d="M151.24 243.56C152.258 244.114 153.314 244.595 154.4 245L147.54 263.24C145.744 262.582 143.994 261.807 142.3 260.92L151.24 243.56Z" fill="#525252"/>
<path d="M141.41 260.43L143.95 255.74L140.54 253.67L145.43 246.34L148.15 248L150.7 243.31L149.25 242.42C148.753 242.146 148.275 241.839 147.82 241.5C146.888 240.849 145.999 240.137 145.16 239.37L132.23 253.94C133.627 255.195 135.096 256.367 136.63 257.45C137.393 258.006 138.184 258.524 139 259L141.41 260.43Z" fill="#525252"/>
<path d="M146 247.61L147.49 248.52C147.99 248.84 148.49 249.04 149.06 249.31L150.63 250.07C151.16 250.33 151.72 250.49 152.27 250.7L149.73 257.44C149.08 257.18 148.4 256.98 147.73 256.68L145.84 255.77C145.21 255.45 144.55 255.19 143.96 254.82L142.16 253.73L146 247.61Z" fill="#525252"/>
<path d="M142.71 236.93L143.87 238.21L145.16 239.37L132.23 253.94L130.12 252C129.46 251.31 128.82 250.6 128.18 249.9L142.71 236.93Z" fill="#525252"/>
<path d="M127.51 249.17L131.56 245.7C131.108 245.21 130.687 244.693 130.3 244.15L129.11 242.55L136.29 237.44L137.29 238.72C137.589 239.16 137.924 239.574 138.29 239.96L142.34 236.49C141.951 236.073 141.597 235.625 141.28 235.15L140.28 233.8L139.4 232.34C139.085 231.867 138.805 231.373 138.56 230.86L121.28 239.86C121.702 240.699 122.166 241.517 122.67 242.31L124.15 244.72L125.83 246.98C126.348 247.741 126.909 248.472 127.51 249.17Z" fill="#525252"/>
<path d="M136.33 238.84C136.69 239.3 137 239.84 137.4 240.22L138.58 241.52C138.957 241.965 139.357 242.389 139.78 242.79L141.08 243.97L136.3 249.35L134.75 247.94C134.22 247.48 133.75 246.94 133.3 246.41L131.89 244.86C131.41 244.34 131.03 243.75 130.6 243.2L136.33 238.84Z" fill="#525252"/>
<path d="M137.09 227.71C137.486 228.79 137.954 229.842 138.49 230.86L121.21 239.86C120.328 238.166 119.55 236.419 118.88 234.63L137.09 227.71Z" fill="#525252"/>
<path d="M118.54 233.7L123.54 231.9C123.31 231.27 123.06 230.65 122.87 230.02L122.37 228.08L130.91 225.89L131.3 227.44C131.45 227.95 131.66 228.44 131.83 228.94L136.83 227.15C136.061 225.016 135.538 222.802 135.27 220.55L116 222.74C116.425 226.478 117.277 230.156 118.54 233.7Z" fill="#525252"/>
<path d="M130.44 227.22C130.581 227.785 130.761 228.34 130.98 228.88L131.58 230.52C131.776 231.069 132.01 231.603 132.28 232.12L133.04 233.7L126.66 237L125.75 235.1C125.424 234.48 125.14 233.838 124.9 233.18L124.18 231.18C123.919 230.529 123.701 229.861 123.53 229.18L130.44 227.22Z" fill="#525252"/>
<path d="M135.12 217.06L135.22 218.82C135.27 219.39 135.22 219.98 135.33 220.55L116 222.74C115.79 220.85 115.75 218.91 115.66 217.06H135.12Z" fill="#525252"/>
<path d="M115.64 216.26H120.98V212.67H129.79V216.26H135.13V211.74L135.12 209.46L134.99 206.65L115.54 207.8L115.64 209.5V211.74V216.26Z" fill="#525252"/>
<path d="M129 213.94V215.87C129 216.51 129 217.18 129 217.74C129.09 218.91 129.08 220.08 129.22 221.24L122.07 222.05C121.9 220.66 121.89 219.25 121.81 217.85C121.81 217.13 121.81 216.52 121.81 215.85V213.92L129 213.94Z" fill="#525252"/>
<path d="M134.33 201C134.679 202.876 134.9 204.774 134.99 206.68L115.54 207.83C115.496 206.675 115.365 205.525 115.15 204.39L134.33 201Z" fill="#525252"/>
<path d="M115.07 203.77L120.3 202.77C120.08 201.77 119.77 200.71 119.53 199.68L127.98 197.19C128.3 198.48 128.67 199.76 128.98 201.06L134.22 200.06C134.04 199.14 133.78 198.23 133.55 197.32C133.32 196.41 133.11 195.49 132.8 194.6L131.8 191.95L131.3 190.62C131.13 190.19 130.91 189.77 130.71 189.34L113 197.32C113.12 197.58 113.26 197.83 113.37 198.09L113.65 198.89L114.24 200.48C114.44 201.01 114.53 201.58 114.68 202.12C114.83 202.66 115 203.21 115.07 203.77Z" fill="#525252"/>
<path d="M127.55 198.72L128.07 200.72C128.21 201.41 128.3 202.1 128.41 202.8L128.72 204.88C128.81 205.57 128.81 206.27 128.86 206.97L121.67 207.4C121.67 206.81 121.67 206.23 121.57 205.65L121.3 204C121.2 203.42 121.14 202.84 121.03 202.27L120.59 200.57L127.55 198.72Z" fill="#525252"/>
<path d="M128 184.21C128.47 185.04 129 185.82 129.43 186.69L130.67 189.27L113 197.32L112.26 195.77C111.995 195.256 111.705 194.755 111.39 194.27L128 184.21Z" fill="#525252"/>
<path d="M111.05 193.76L115.56 190.91C115.007 190.001 114.396 189.129 113.73 188.3L120.73 182.94C121.56 183.98 122.321 185.072 123.01 186.21L127.52 183.36L126.78 182.16C126.52 181.77 126.23 181.4 125.95 181.02L124.27 178.77C123.72 178.01 123.04 177.35 122.42 176.65C121.8 175.95 121.17 175.24 120.5 174.59L106.81 188.44C107.21 188.84 107.57 189.29 107.96 189.7C108.36 190.103 108.734 190.53 109.08 190.98L110.08 192.35C110.25 192.58 110.43 192.79 110.59 193.03L111.05 193.76Z" fill="#525252"/>
<path d="M120.92 184.54C122.555 186.82 123.962 189.255 125.12 191.81L118.57 194.81C117.602 192.682 116.43 190.652 115.07 188.75L120.92 184.54Z" fill="#525252"/>
<path d="M116.19 170.83C116.57 171.12 116.96 171.4 117.33 171.7L118.39 172.7L120.5 174.63L106.81 188.48L105.52 187.32L104.88 186.73C104.66 186.55 104.42 186.39 104.19 186.21L116.19 170.83Z" fill="#525252"/>
<path d="M103.71 185.82L106.91 181.55L105.63 180.55C105.19 180.25 104.73 179.99 104.28 179.71L108.9 172.21C109.47 172.56 110.05 172.89 110.6 173.27L112.2 174.46L115.4 170.19C114.64 169.64 113.91 169.05 113.12 168.54L110.72 167.07L109.51 166.35C109.1 166.12 108.67 165.93 108.25 165.72L105.7 164.5L97.86 182.33L99.39 183.07C99.64 183.2 99.91 183.3 100.16 183.44L100.88 183.89L102.34 184.77C102.82 185.11 103.25 185.49 103.71 185.82Z" fill="#525252"/>
<path d="M109.67 173.66C110.83 174.44 111.93 175.32 113.05 176.15C114.17 176.98 115.14 178.02 116.19 178.96L111.13 184.07C110.25 183.3 109.41 182.48 108.52 181.74C107.63 181 106.66 180.31 105.69 179.66L109.67 173.66Z" fill="#525252"/>
<path d="M100.33 162.53C101.25 162.81 102.14 163.16 103.04 163.53C103.944 163.837 104.832 164.191 105.7 164.59L97.86 182.42C97.3401 182.172 96.8019 181.965 96.25 181.8C95.71 181.61 95.18 181.38 94.63 181.21L100.33 162.53Z" fill="#525252"/>
<path d="M94.05 181L95.51 175.87L93.96 175.48C93.4532 175.323 92.935 175.206 92.41 175.13L94.03 166.47C94.7058 166.567 95.3741 166.711 96.03 166.9L97.97 167.39L99.42 162.26C97.6162 161.733 95.7786 161.328 93.92 161.05L91.13 160.63C90.2 160.55 89.26 160.52 88.33 160.47L87.4 179.93C87.97 179.93 88.54 179.93 89.11 180.01L90.79 180.28C91.8924 180.443 92.9818 180.683 94.05 181Z" fill="#525252"/>
<path d="M95.2399 167.55C96.5999 167.92 97.9799 168.2 99.2999 168.66C100.62 169.12 101.96 169.57 103.23 170.16L100.33 176.75C99.3299 176.25 98.1499 175.93 97.0699 175.5C95.9899 175.07 94.8099 174.9 93.6899 174.58L95.2399 167.55Z" fill="#525252"/>
<path d="M82.9299 160.43L84.3599 160.37H85.5199C85.8599 160.37 86.3799 160.37 86.8499 160.37L88.2799 160.44L87.3499 179.9L86.4799 179.85C86.1469 179.831 85.813 179.831 85.4799 179.85H84.3399L83.4699 179.91L82.9299 160.43Z" fill="#525252"/>
<path d="M82.91 179.94L82.65 174.61L81.05 174.69C80.52 174.69 80.05 174.84 79.47 174.91L78.24 166.18C78.9 166.09 79.55 165.96 80.24 165.91L82.24 165.81L81.97 160.48C81.04 160.54 80.1 160.56 79.17 160.66L76.38 161.08C74.5221 161.367 72.6848 161.774 70.88 162.3L76.21 181C77.2944 180.678 78.4006 180.434 79.52 180.27L81.2 180C81.77 180 82.34 180 82.91 179.94Z" fill="#525252"/>
<path d="M79.73 166.78C81.12 166.65 82.52 166.61 83.92 166.54C84.64 166.49 85.23 166.54 85.92 166.54L88.01 166.64L87.67 173.83L85.92 173.74C85.29 173.74 84.59 173.74 84.03 173.74C82.86 173.82 81.69 173.84 80.53 173.94L79.73 166.78Z" fill="#525252"/>
<path d="M65.4299 164.17L68.1199 163.17C69.0095 162.817 69.9215 162.523 70.8499 162.29L76.2099 181C75.6496 181.131 75.1011 181.309 74.5699 181.53L72.9499 182.12L65.4299 164.17Z" fill="#525252"/>
<path d="M72.41 182.4L70.25 177.52C69.25 178 68.31 178.41 67.39 178.93L63.1 171.23C64.26 170.58 65.49 170.05 66.68 169.46L64.53 164.58C62.8115 165.339 61.1417 166.204 59.53 167.17L57.12 168.64C56.34 169.16 55.61 169.74 54.85 170.3L66.57 185.85C67.03 185.52 67.47 185.15 67.94 184.85L69.4 183.97C70.3704 183.386 71.3756 182.861 72.41 182.4Z" fill="#525252"/>
<path d="M64.73 171.3C67.2272 170.017 69.8427 168.979 72.54 168.2L74.54 175.12C72.2818 175.767 70.0915 176.631 68 177.7L64.73 171.3Z" fill="#525252"/>
<path d="M50.47 174L52.59 172.07C53.28 171.41 54.09 170.9 54.84 170.31L66.56 185.86C66.0872 186.191 65.6332 186.548 65.2 186.93L63.92 188.1L50.47 174Z" fill="#525252"/>
<path d="M63.47 188.48L59.71 184.7L57.55 187.05L50.8 181.39C51.7 180.39 52.58 179.39 53.5 178.44L49.74 174.66C49.09 175.33 48.47 176.03 47.83 176.72C47.1826 177.397 46.5717 178.108 46 178.85C44.826 180.317 43.7407 181.853 42.75 183.45L59.25 193.81C59.8589 192.843 60.5268 191.915 61.25 191.03C61.5935 190.578 61.9677 190.15 62.37 189.75C62.71 189.33 63.07 188.89 63.47 188.48Z" fill="#525252"/>
<path d="M52.36 180.88L53.77 179.32C54.26 178.82 54.77 178.37 55.31 177.89L56.87 176.48C57.4 176.03 57.98 175.63 58.54 175.2L62.87 181C62.4 181.35 61.87 181.68 61.47 182.06L60.18 183.24C59.75 183.64 59.29 184.01 58.89 184.43L57.72 185.73L52.36 180.88Z" fill="#525252"/>
<path d="M40 188.47C40.43 187.61 40.82 186.74 41.28 185.9L42.76 183.45L59.26 193.81L58.35 195.29C58.08 195.79 57.85 196.29 57.6 196.84L40 188.47Z" fill="#525252"/>
<path d="M57.32 197.38L52.46 195.19L52.11 195.9L51.84 196.65L51.29 198.15L43 195.28L43.69 193.4L44.04 192.46L44.47 191.56L39.61 189.37C39.1964 190.213 38.8357 191.082 38.53 191.97L37.53 194.63C37.23 195.52 37.03 196.44 36.78 197.35C36.53 198.26 36.29 199.17 36.13 200.09L55.25 203.83C55.33 203.27 55.53 202.73 55.65 202.18C55.77 201.63 55.91 201.08 56.09 200.54L56.68 198.95C56.8473 198.409 57.0615 197.884 57.32 197.38Z" fill="#525252"/>
<path d="M44.2 194.23C44.6846 192.914 45.249 191.628 45.89 190.38C46.5121 189.115 47.2169 187.892 48 186.72L54 190.55C53.364 191.528 52.7928 192.547 52.29 193.6C51.7481 194.632 51.2802 195.702 50.89 196.8L44.2 194.23Z" fill="#525252"/>
<path d="M35.38 205.77C35.38 205.29 35.38 204.77 35.48 204.34L35.69 202.92L36.13 200.09L55.25 203.83L55 205.54L54.86 206.39C54.8451 206.68 54.8451 206.97 54.86 207.26L35.38 205.77Z" fill="#525252"/>
<path d="M54.7799 207.86L49.4499 207.56C49.4499 208.62 49.3199 209.64 49.3499 210.9H40.5299C40.5299 209.76 40.59 208.38 40.65 207.06L35.33 206.75L35.2 209.56V216.35H54.68V209.57L54.7799 207.86Z" fill="#525252"/>
<path d="M41.34 209.62L41.55 205.43C41.71 204.04 41.95 202.66 42.16 201.27L49.22 202.65C49.06 203.81 48.85 204.96 48.71 206.12L48.54 209.62H41.34Z" fill="#525252"/>
<path d="M54.68 216.35H35.2V220.94H54.68V216.35Z" fill="#525252"/>
<path d="M54.68 221.74H49.3499V225.33H40.5299V221.74H35.2V230.78H54.68V221.74Z" fill="#525252"/>
<path d="M48.54 216.35H41.34V224.06H48.54V216.35Z" fill="#525252"/>
<path d="M54.68 230.78H35.2V235.37H54.68V230.78Z" fill="#525252"/>
<path d="M54.68 236.17H49.3499V239.76H40.5299V236.17H35.2V245.21H54.68V236.17Z" fill="#525252"/>
<path d="M48.54 230.78H41.34V238.49H48.54V230.78Z" fill="#525252"/>
<path d="M54.68 245.21H35.2V249.8H54.68V245.21Z" fill="#525252"/>
<path d="M48.54 245.21H41.34V252.92H48.54V245.21Z" fill="#525252"/>
<path d="M54.68 249.8H49.3499V253.4H40.5299V249.8H35.2V258.84H54.68V249.8Z" fill="#525252"/>
<path d="M48.54 244.41H41.34V252.12H48.54V244.41Z" fill="#525252"/>
<path d="M47.47 257.33L67.2 278.07V306.91" stroke="#B6B6B6" stroke-width="9" stroke-linecap="round" stroke-linejoin="round"/>
<path d="M46.08 257.33L26.34 278.07V306.91" stroke="#B6B6B6" stroke-width="9" stroke-linecap="round" stroke-linejoin="round"/>
<path d="M47.8175 271.293C55.8148 269.994 61.2456 262.459 59.9474 254.462C58.6493 246.464 51.1138 241.033 43.1165 242.332C35.1191 243.63 29.6883 251.165 30.9865 259.163C32.2847 267.16 39.8201 272.591 47.8175 271.293Z" fill="#525252" stroke="#B6B6B6" stroke-miterlimit="10"/>
<path d="M45.45 264.81C49.8627 264.81 53.44 261.233 53.44 256.82C53.44 252.407 49.8627 248.83 45.45 248.83C41.0372 248.83 37.46 252.407 37.46 256.82C37.46 261.233 41.0372 264.81 45.45 264.81Z" fill="white" stroke="#B6B6B6" stroke-miterlimit="10"/>
<path d="M132.5 50.23C136.741 51.3339 141.123 51.7957 145.5 51.6L145.19 47.88C144.97 47.88 123.19 49.43 106.39 29.38L103.53 31.78C110.954 40.8825 121.112 47.3518 132.5 50.23Z" fill="#263238"/>
<path d="M103.18 71.89C125.75 51.7 144.18 58.18 144.37 58.25L145.66 54.75C144.83 54.44 124.91 47.44 100.66 69.11L103.18 71.89Z" fill="#263238"/>
<path d="M103.16 90.06C126.27 88.74 146.23 63.31 147.07 62.22L144.13 59.94C143.93 60.19 124.35 85.11 102.95 86.34L103.16 90.06Z" fill="#263238"/>
<path d="M105.66 31.78L100.81 26.49" stroke="#263238" stroke-miterlimit="10"/>
<path d="M104.34 67.67L98.5801 74.46" stroke="#263238" stroke-miterlimit="10"/>
<path d="M106.59 87.7C103.343 87.729 100.103 87.3935 96.9301 86.7" stroke="#263238" stroke-miterlimit="10"/>
<path d="M93.0201 73.43L87.3101 74.42" stroke="#263238" stroke-miterlimit="10"/>
<path d="M95.77 76.16L88.63 82.94" stroke="#263238" stroke-miterlimit="10"/>
<path d="M98.59 77.19L98.29 82.58" stroke="#263238" stroke-miterlimit="10"/>
<path d="M94.2701 40.59L81.7001 37.5" stroke="#263238" stroke-miterlimit="10"/>
<path d="M103.77 43.62L84.4601 44.33" stroke="#263238" stroke-miterlimit="10"/>
<path d="M98.6701 35.19L87.4701 30.72" stroke="#263238" stroke-miterlimit="10"/>
<path d="M130.4 85.36L124.88 93.91" stroke="#263238" stroke-miterlimit="10"/>
<path d="M126.37 83.69L113.71 96.29" stroke="#263238" stroke-miterlimit="10"/>
<path d="M125.29 74.19L115.88 74.95" stroke="#263238" stroke-miterlimit="10"/>
<path d="M78.4801 57.55L80.6101 61.43L77.5801 64.66L81.9301 63.82L84.0601 67.7L84.6101 63.31L88.9601 62.48L84.9601 60.6L85.5101 56.21L82.4801 59.44L78.4801 57.55Z" fill="white" stroke="#263238" stroke-width="0.5" stroke-linecap="round" stroke-linejoin="round"/>
<path d="M84.43 13.92L86.56 17.79L83.53 21.02L87.88 20.19L90.01 24.07L90.57 19.68L94.91 18.84L90.91 16.96L91.46 12.57L88.43 15.8L84.43 13.92Z" fill="white" stroke="#263238" stroke-width="0.5" stroke-linecap="round" stroke-linejoin="round"/>
<path d="M321.76 233.71C317.686 234.07 313.69 235.048 309.91 236.61L311.36 239.78C311.55 239.69 330.2 231.46 351.36 243.78L353.11 240.78C343.695 235.106 332.699 232.627 321.76 233.71Z" fill="#263238"/>
<path d="M340.7 205.38C327.23 230.28 308.95 230.38 308.78 230.38V233.86C309.62 233.86 329.36 233.73 343.78 207.01L340.7 205.38Z" fill="#263238"/>
<path d="M335 189.39C315.08 197.86 305.56 226.55 305.16 227.76L308.48 228.84C308.57 228.56 317.92 200.44 336.36 192.6L335 189.39Z" fill="#263238"/>
<path d="M351.2 241.45L357.14 244.58" stroke="#263238" stroke-miterlimit="10"/>
<path d="M341.01 209.46L343.94 201.67" stroke="#263238" stroke-miterlimit="10"/>
<path d="M332.7 192.55C335.55 191.498 338.508 190.77 341.52 190.38" stroke="#263238" stroke-miterlimit="10"/>
<path d="M349.15 200.81L353.86 198.14" stroke="#263238" stroke-miterlimit="10"/>
<path d="M345.88 199.28L350.01 191.06" stroke="#263238" stroke-miterlimit="10"/>
<path d="M343.07 199.26L341.63 194.43" stroke="#263238" stroke-miterlimit="10"/>
<path d="M358.44 230.1L370.47 228.84" stroke="#263238" stroke-miterlimit="10"/>
<path d="M349.12 230.44L365.88 223.71" stroke="#263238" stroke-miterlimit="10"/>
<path d="M356.27 236.25L367.54 236.63" stroke="#263238" stroke-miterlimit="10"/>
<path d="M312.49 202.14L314.65 192.87" stroke="#263238" stroke-miterlimit="10"/>
<path d="M316.57 202.34L323.73 187.25" stroke="#263238" stroke-miterlimit="10"/>
<path d="M320.52 210.34L328.56 206.7" stroke="#263238" stroke-miterlimit="10"/>
<path d="M366.97 210.19L363.87 207.45L365.51 203.65L361.95 205.76L358.85 203.02L359.75 207.06L356.19 209.16L360.31 209.55L361.21 213.59L362.85 209.8L366.97 210.19Z" fill="white" stroke="#263238" stroke-width="0.5" stroke-linecap="round" stroke-linejoin="round"/>
<path d="M375.53 250.46L372.43 247.72L374.07 243.92L370.51 246.03L367.41 243.29L368.31 247.33L364.75 249.44L368.87 249.82L369.77 253.86L371.41 250.07L375.53 250.46Z" fill="white" stroke="#263238" stroke-width="0.5" stroke-linecap="round" stroke-linejoin="round"/>
<path d="M323.07 183.88L319.96 181.15L321.61 177.35L318.05 179.46L314.94 176.72L315.85 180.76L312.29 182.86L316.4 183.25L317.31 187.29L318.95 183.5L323.07 183.88Z" fill="white" stroke="#263238" stroke-width="0.5" stroke-linecap="round" stroke-linejoin="round"/>
<path d="M115.11 140.81V143.39" stroke="#263238" stroke-linecap="round" stroke-linejoin="round"/>
<path d="M115.11 112.53V138.47" stroke="#263238" stroke-linecap="round" stroke-linejoin="round"/>
<path d="M110.79 121.27V146.88" stroke="#263238" stroke-linecap="round" stroke-linejoin="round"/>
<path d="M342.33 113.3V117.13" stroke="#263238" stroke-linecap="round" stroke-linejoin="round"/>
<path d="M342.33 71.3V109.83" stroke="#263238" stroke-linecap="round" stroke-linejoin="round"/>
<path d="M338 84.27V122.32" stroke="#263238" stroke-linecap="round" stroke-linejoin="round"/>
<path d="M283.49 170.91H279.66" stroke="#263238" stroke-linecap="round" stroke-linejoin="round"/>
<path d="M325.49 170.91H286.96" stroke="#263238" stroke-linecap="round" stroke-linejoin="round"/>
<path d="M312.52 166.58H274.47" stroke="#263238" stroke-linecap="round" stroke-linejoin="round"/>
<path d="M150.04 170.91H146.2" stroke="#263238" stroke-linecap="round" stroke-linejoin="round"/>
<path d="M192.04 170.91H153.51" stroke="#263238" stroke-linecap="round" stroke-linejoin="round"/>
<path d="M179.07 166.58H141.01" stroke="#263238" stroke-linecap="round" stroke-linejoin="round"/>
<path d="M247.17 154.93H205.95V196.15H247.17V154.93Z" fill="white" stroke="#263238" stroke-miterlimit="10"/>
<path d="M247.17 154.93H205.95V165.81H247.17V154.93Z" fill="#263238" stroke="#263238" stroke-miterlimit="10"/>
<path d="M206.46 174.2H246.82" stroke="#263238" stroke-miterlimit="10"/>
<path d="M206.46 182.09H246.82" stroke="#263238" stroke-miterlimit="10"/>
<path d="M206.46 189.99H246.82" stroke="#263238" stroke-miterlimit="10"/>
<path d="M244.21 164.73V172.34" stroke="#263238" stroke-miterlimit="10"/>
<path d="M244.21 174.33V179.95" stroke="#263238" stroke-miterlimit="10"/>
<path d="M244.21 182.48V188.1" stroke="#263238" stroke-miterlimit="10"/>
<path d="M200.7 0.570007H252.41C254.569 0.570007 256.639 1.42761 258.166 2.95415C259.692 4.4807 260.55 6.55115 260.55 8.71001V28.36H192.55V8.71001C192.55 6.55115 193.408 4.4807 194.934 2.95415C196.461 1.42761 198.531 0.570007 200.69 0.570007H200.7Z" fill="#263238" stroke="#263238" stroke-miterlimit="10"/>
<path d="M328.43 10.25H124.69C122.613 10.25 120.93 11.9334 120.93 14.01V157.25C120.93 159.327 122.613 161.01 124.69 161.01H328.43C330.507 161.01 332.19 159.327 332.19 157.25V14.01C332.19 11.9334 330.507 10.25 328.43 10.25Z" fill="#263238" stroke="#263238" stroke-miterlimit="10"/>
<path d="M320.63 17.23H132.47C130.393 17.23 128.71 18.9134 128.71 20.99V150.27C128.71 152.347 130.393 154.03 132.47 154.03H320.63C322.707 154.03 324.39 152.347 324.39 150.27V20.99C324.39 18.9134 322.707 17.23 320.63 17.23Z" fill="white" stroke="#263238" stroke-miterlimit="10"/>
<path d="M253.61 5.61001C253.608 5.11203 253.459 4.6258 253.181 4.2127C252.902 3.79961 252.508 3.47817 252.048 3.28897C251.587 3.09977 251.081 3.05129 250.592 3.14965C250.104 3.24801 249.656 3.48881 249.305 3.84163C248.953 4.19446 248.714 4.64349 248.618 5.13204C248.521 5.6206 248.572 6.12678 248.763 6.58667C248.954 7.04655 249.277 7.43954 249.691 7.716C250.105 7.99246 250.592 8.14001 251.09 8.14001C251.422 8.14001 251.75 8.0745 252.057 7.94723C252.363 7.81996 252.641 7.63345 252.876 7.39839C253.11 7.16332 253.295 6.88434 253.421 6.57745C253.547 6.27055 253.611 5.94178 253.61 5.61001Z" fill="white" stroke="#263238" stroke-miterlimit="10"/>
<path d="M244.15 5.61C244.15 5.10919 244.001 4.61964 243.723 4.20337C243.445 3.7871 243.049 3.46283 242.586 3.27164C242.123 3.08045 241.614 3.03093 241.123 3.12937C240.632 3.2278 240.181 3.46975 239.828 3.82458C239.474 4.17941 239.234 4.63114 239.137 5.12257C239.041 5.614 239.093 6.12302 239.286 6.58514C239.479 7.04726 239.804 7.44169 240.222 7.71849C240.639 7.99528 241.129 8.14198 241.63 8.14C241.962 8.14 242.29 8.07448 242.597 7.94722C242.903 7.81995 243.181 7.63344 243.416 7.39837C243.65 7.16331 243.835 6.88433 243.961 6.57744C244.087 6.27054 244.151 5.94177 244.15 5.61Z" fill="white" stroke="#263238" stroke-miterlimit="10"/>
<path d="M234.69 5.61C234.69 5.10919 234.541 4.61964 234.263 4.20337C233.985 3.7871 233.589 3.46283 233.126 3.27164C232.663 3.08045 232.154 3.03093 231.663 3.12937C231.172 3.2278 230.721 3.46975 230.368 3.82458C230.014 4.17941 229.774 4.63114 229.678 5.12257C229.581 5.614 229.633 6.12302 229.826 6.58514C230.019 7.04726 230.344 7.44169 230.762 7.71849C231.179 7.99528 231.669 8.14198 232.17 8.14C232.502 8.14 232.83 8.07448 233.137 7.94722C233.443 7.81995 233.721 7.63344 233.956 7.39837C234.19 7.16331 234.375 6.88433 234.501 6.57744C234.627 6.27054 234.691 5.94177 234.69 5.61Z" fill="white" stroke="#263238" stroke-miterlimit="10"/>
<path d="M244.21 190.64V196.26" stroke="#263238" stroke-miterlimit="10"/>
<path d="M53.25 313H399.87C402.848 313 405.705 314.183 407.811 316.289C409.917 318.395 411.1 321.252 411.1 324.23V345.78H42V324.23C42 322.754 42.2911 321.292 42.8567 319.928C43.4224 318.564 44.2513 317.325 45.2963 316.282C46.3412 315.239 47.5815 314.412 48.9463 313.849C50.3111 313.286 51.7736 312.997 53.25 313Z" fill="white" stroke="#263238" stroke-miterlimit="10"/>
<path d="M155.65 195.18H297.46C298.935 195.18 300.395 195.47 301.758 196.035C303.12 196.599 304.358 197.426 305.401 198.469C306.444 199.512 307.271 200.75 307.835 202.112C308.4 203.475 308.69 204.935 308.69 206.41V345.78H144.42V206.41C144.42 203.432 145.603 200.575 147.709 198.469C149.815 196.363 152.672 195.18 155.65 195.18Z" fill="white" stroke="#263238" stroke-miterlimit="10"/>
<path d="M277.1 226.57H176.01C173.933 226.57 172.25 228.253 172.25 230.33V298.74C172.25 300.817 173.933 302.5 176.01 302.5H277.1C279.177 302.5 280.86 300.817 280.86 298.74V230.33C280.86 228.253 279.177 226.57 277.1 226.57Z" fill="#263238" stroke="#263238" stroke-miterlimit="10"/>
<path d="M184.86 313.29C184.86 312.21 184.54 311.154 183.94 310.257C183.34 309.359 182.487 308.659 181.489 308.246C180.492 307.832 179.394 307.724 178.335 307.935C177.276 308.146 176.303 308.666 175.539 309.429C174.776 310.193 174.256 311.166 174.045 312.225C173.834 313.284 173.942 314.382 174.356 315.379C174.769 316.377 175.469 317.23 176.367 317.83C177.264 318.43 178.32 318.75 179.4 318.75C180.848 318.75 182.237 318.175 183.261 317.151C184.285 316.127 184.86 314.738 184.86 313.29Z" fill="#263238" stroke="#263238" stroke-miterlimit="10"/>
<path d="M197.84 318.75C200.856 318.75 203.3 316.305 203.3 313.29C203.3 310.275 200.856 307.83 197.84 307.83C194.825 307.83 192.38 310.275 192.38 313.29C192.38 316.305 194.825 318.75 197.84 318.75Z" fill="#263238" stroke="#263238" stroke-miterlimit="10"/>
<path d="M216.27 318.75C219.286 318.75 221.73 316.305 221.73 313.29C221.73 310.275 219.286 307.83 216.27 307.83C213.255 307.83 210.81 310.275 210.81 313.29C210.81 316.305 213.255 318.75 216.27 318.75Z" fill="#263238" stroke="#263238" stroke-miterlimit="10"/>
<path d="M230.72 318.31V325.82H238.23V318.31H230.72Z" fill="#263238" stroke="#263238" stroke-miterlimit="10"/>
<path d="M230.72 308.41V315.92H238.23V308.41H230.72Z" fill="#263238" stroke="#263238" stroke-miterlimit="10"/>
<path d="M240.28 318.31V325.82H247.79V318.31H240.28Z" fill="#263238" stroke="#263238" stroke-miterlimit="10"/>
<path d="M240.28 308.41V315.92H247.79V308.41H240.28Z" fill="#263238" stroke="#263238" stroke-miterlimit="10"/>
<path d="M249.84 318.31V325.82H257.35V318.31H249.84Z" fill="#263238" stroke="#263238" stroke-miterlimit="10"/>
<path d="M249.84 308.41V315.92H257.35V308.41H249.84Z" fill="#263238" stroke="#263238" stroke-miterlimit="10"/>
<path d="M207.4 218.37H176C175.275 218.37 174.58 218.083 174.066 217.571C173.553 217.059 173.263 216.365 173.26 215.64C173.263 214.915 173.553 214.221 174.066 213.709C174.58 213.197 175.275 212.91 176 212.91H207.4C208.124 212.91 208.818 213.198 209.33 213.71C209.842 214.222 210.13 214.916 210.13 215.64C210.13 215.999 210.059 216.354 209.922 216.685C209.785 217.016 209.584 217.317 209.33 217.57C209.077 217.824 208.776 218.025 208.445 218.162C208.114 218.299 207.759 218.37 207.4 218.37Z" fill="white" stroke="#263238" stroke-miterlimit="10"/>
<path d="M185.55 220.42C188.566 220.42 191.01 217.975 191.01 214.96C191.01 211.945 188.566 209.5 185.55 209.5C182.535 209.5 180.09 211.945 180.09 214.96C180.09 217.975 182.535 220.42 185.55 220.42Z" fill="#263238" stroke="#263238" stroke-miterlimit="10"/>
<path d="M308.18 220.31L292.74 235.95V308.92L308.67 324.56" stroke="#263238" stroke-miterlimit="10"/>
<path d="M145.06 220.31L160.51 235.95V308.92L144.58 324.56" stroke="#263238" stroke-miterlimit="10"/>
<path d="M174.62 264.08H199.42L215.08 240.73L230.07 264.08H241.01L250.82 278.67L259.25 264.33H274.58" stroke="white" stroke-width="2" stroke-linecap="round" stroke-linejoin="round"/>
<path d="M0.0600586 345.78H453.06" stroke="#263238" stroke-width="2" stroke-miterlimit="10"/>
<path d="M133.12 284.55C131.97 282.75 132.24 280.55 133.71 279.6C135.18 278.65 137.3 279.37 138.45 281.17C139.6 282.97 139.32 285.17 137.85 286.12C136.38 287.07 134.26 286.35 133.12 284.55Z" fill="white" stroke="#263238" stroke-linecap="round" stroke-linejoin="round"/>
<path d="M126.11 285.17C126.175 285.125 126.246 285.088 126.32 285.06L134.41 281.44C134.808 281.262 135.26 281.25 135.667 281.406C136.074 281.561 136.402 281.872 136.58 282.27C136.758 282.668 136.77 283.12 136.614 283.527C136.459 283.934 136.148 284.262 135.75 284.44L127.65 288.05C127.272 288.233 126.837 288.262 126.437 288.133C126.038 288.003 125.703 287.723 125.505 287.353C125.306 286.983 125.258 286.55 125.371 286.145C125.484 285.74 125.748 285.394 126.11 285.18V285.17Z" fill="white" stroke="#263238" stroke-miterlimit="10"/>
<path d="M25.7001 96.11C24.5601 94.31 24.8301 92.11 26.3001 91.11C27.7701 90.11 29.8901 90.88 31.0301 92.68C32.1701 94.48 31.9101 96.68 30.4401 97.68C28.9701 98.68 26.8501 97.91 25.7001 96.11Z" fill="white" stroke="#263238" stroke-linecap="round" stroke-linejoin="round"/>
<path d="M18.69 96.73L18.91 96.62L27 93C27.3979 92.8236 27.8495 92.8125 28.2555 92.9691C28.6615 93.1257 28.9887 93.4372 29.165 93.835C29.3414 94.2328 29.3525 94.6844 29.1959 95.0904C29.0393 95.4965 28.7279 95.8236 28.33 96L20.24 99.61C19.8653 99.764 19.4469 99.7738 19.0654 99.6376C18.6839 99.5014 18.3663 99.2288 18.1738 98.8724C17.9813 98.5159 17.9275 98.1009 18.0229 97.7071C18.1182 97.3134 18.3558 96.9689 18.69 96.74V96.73Z" fill="white" stroke="#263238" stroke-miterlimit="10"/>
<path d="M422.82 144C422.38 146.09 420.64 147.49 418.94 147.13C417.24 146.77 416.21 144.78 416.65 142.7C417.09 140.62 418.83 139.21 420.53 139.57C422.23 139.93 423.26 141.94 422.82 144Z" fill="white" stroke="#263238" stroke-linecap="round" stroke-linejoin="round"/>
<path d="M428.27 148.48L428.04 148.41L419.72 145.34C419.336 145.172 419.031 144.864 418.867 144.478C418.703 144.093 418.693 143.659 418.839 143.266C418.985 142.873 419.275 142.551 419.651 142.366C420.027 142.181 420.46 142.146 420.86 142.27L429.17 145.34C429.552 145.488 429.864 145.773 430.046 146.14C430.228 146.506 430.266 146.927 430.153 147.321C430.041 147.714 429.785 148.051 429.436 148.266C429.088 148.48 428.672 148.557 428.27 148.48Z" fill="white" stroke="#263238" stroke-miterlimit="10"/>
<path d="M370 300.75C369.55 302.84 367.81 304.24 366.11 303.88C364.41 303.52 363.38 301.53 363.82 299.45C364.26 297.37 366 295.96 367.71 296.32C369.42 296.68 370.41 298.66 370 300.75Z" fill="white" stroke="#263238" stroke-linecap="round" stroke-linejoin="round"/>
<path d="M375.41 305.21L375.18 305.14L366.87 302.07C366.493 301.899 366.194 301.592 366.034 301.209C365.874 300.827 365.865 300.398 366.008 300.01C366.151 299.621 366.436 299.3 366.805 299.113C367.175 298.926 367.602 298.885 368 299L376.32 302.07C376.705 302.216 377.021 302.502 377.205 302.871C377.389 303.24 377.427 303.664 377.313 304.06C377.198 304.455 376.939 304.793 376.586 305.006C376.234 305.22 375.814 305.292 375.41 305.21Z" fill="white" stroke="#263238" stroke-miterlimit="10"/>
<path d="M332.22 291.92L327.65 289.7L323.09 291.92L321.96 296.92L325.12 300.92H330.19L333.35 296.92L332.22 291.92ZM328.94 298.31H326.37L324.76 296.31L325.33 293.77L327.65 292.64L329.97 293.77L330.54 296.31L328.94 298.31Z" fill="white" stroke="#263238" stroke-linecap="round" stroke-linejoin="round"/>
<path d="M409.57 50.32L405 48.09L400.43 50.32L399.31 55.32L402.47 59.32H407.53L410.69 55.32L409.57 50.32ZM406.29 56.71H403.71L402.11 54.71L402.68 52.17L405 51L407.32 52.13L407.89 54.67L406.29 56.71Z" fill="white" stroke="#263238" stroke-linecap="round" stroke-linejoin="round"/>
<path d="M368.57 25.32L364 23.09L359.43 25.32L358.31 30.32L361.47 34.32H366.53L369.69 30.32L368.57 25.32ZM365.29 31.71H362.71L361.11 29.71L361.68 27.17L364 26L366.32 27.13L366.89 29.67L365.29 31.71Z" fill="white" stroke="#263238" stroke-linecap="round" stroke-linejoin="round"/>
<path d="M127.25 332.19L122.68 330L118.12 332.23L116.99 337.23L120.15 341.23H125.22L128.37 337.23L127.25 332.19ZM124 338.58H121.4L119.79 336.58L120.36 334.04L122.68 332.91L125 334L125.57 336.54L124 338.58Z" fill="white" stroke="#263238" stroke-linecap="round" stroke-linejoin="round"/>
<path d="M87.25 236.19L82.68 234L78.12 236.23L76.99 241.23L80.15 245.23H85.22L88.37 241.23L87.25 236.19ZM84 242.58H81.4L79.79 240.58L80.36 238.04L82.68 236.91L85 238L85.57 240.54L84 242.58Z" fill="white" stroke="#263238" stroke-linecap="round" stroke-linejoin="round"/>
<path d="M51.28 110.61L46.71 108.38L42.15 110.61L41.02 115.61L44.18 119.61H49.25L52.41 115.61L51.28 110.61ZM48 117H45.43L43.82 115L44.4 112.46L46.71 111.33L49 112.42L49.6 115L48 117Z" fill="white" stroke="#263238" stroke-linecap="round" stroke-linejoin="round"/>
<path d="M209.36 177L204.8 174.78L200.23 177L199.1 182L202.26 186H207.33L210.49 182L209.36 177ZM206.08 183.39H203.51L201.91 181.39L202.48 178.85L204.8 177.72L207.12 178.85L207.69 181.39L206.08 183.39Z" fill="white" stroke="#263238" stroke-linecap="round" stroke-linejoin="round"/>
<path d="M192.56 103.98V107.51H183.94V120.07H194.53V123.65H180V88.35H194.53V91.93H183.94V103.98H192.56Z" fill="#263238"/>
<path d="M206.02 88.35C211.57 88.35 213.89 91.17 213.89 96.42V99.29C213.89 103.18 212.53 105.6 209.5 106.55C212.73 107.55 213.94 110.14 213.94 113.92V119.41C213.822 120.86 214.066 122.317 214.65 123.65H210.65C210.099 122.291 209.877 120.821 210 119.36V113.82C210 109.82 208.13 108.57 204.85 108.57H202.08V123.65H198.15V88.35H206.02ZM205.02 104.99C208.14 104.99 210.02 103.99 210.02 100.15V96.76C210.02 93.58 208.86 91.92 205.93 91.92H202.1V104.98L205.02 104.99Z" fill="#263238"/>
<path d="M225.89 88.35C231.44 88.35 233.76 91.17 233.76 96.42V99.29C233.76 103.18 232.4 105.6 229.37 106.55C232.6 107.55 233.81 110.14 233.81 113.92V119.41C233.692 120.86 233.936 122.317 234.52 123.65H230.52C229.97 122.291 229.747 120.821 229.87 119.36V113.82C229.87 109.82 228 108.57 224.72 108.57H221.95V123.65H218.02V88.35H225.89ZM224.89 104.99C228.02 104.99 229.89 103.99 229.89 100.15V96.76C229.89 93.58 228.73 91.92 225.8 91.92H221.97V104.98L224.89 104.99Z" fill="#263238"/>
<path d="M237.59 96.87C237.59 91.48 240.26 88 245.66 88C251.06 88 253.78 91.48 253.78 96.87V115.13C253.78 120.47 251.11 124 245.66 124C240.21 124 237.59 120.47 237.59 115.13V96.87ZM241.47 115.33C241.47 118.56 242.84 120.42 245.66 120.42C248.48 120.42 249.85 118.56 249.85 115.33V96.67C249.85 93.49 248.53 91.58 245.66 91.58C242.79 91.58 241.47 93.49 241.47 96.67V115.33Z" fill="#263238"/>
<path d="M265.38 88.35C270.92 88.35 273.24 91.17 273.24 96.42V99.29C273.24 103.18 271.88 105.6 268.86 106.55C272.08 107.55 273.29 110.14 273.29 113.92V119.41C273.172 120.86 273.416 122.317 274 123.65H270C269.44 122.293 269.214 120.822 269.34 119.36V113.82C269.34 109.82 267.48 108.57 264.2 108.57H261.42V123.65H257.51V88.35H265.38ZM264.38 104.99C267.51 104.99 269.38 103.99 269.38 100.15V96.76C269.38 93.58 268.22 91.92 265.3 91.92H261.46V104.98L264.38 104.99Z" fill="#263238"/>
<path d="M226.663 38.616L209.163 68.926C209.056 69.1117 209 69.3224 209 69.5369C209 69.7513 209.057 69.9619 209.164 70.1475C209.272 70.3331 209.426 70.487 209.612 70.5939C209.798 70.7007 210.009 70.7566 210.223 70.756H245.223C245.438 70.7566 245.649 70.7007 245.835 70.5939C246.021 70.487 246.175 70.3331 246.283 70.1475C246.39 69.9619 246.447 69.7513 246.447 69.5369C246.447 69.3224 246.391 69.1117 246.283 68.926L228.783 38.616C228.677 38.4289 228.523 38.2734 228.336 38.1652C228.15 38.057 227.939 38 227.723 38C227.508 38 227.297 38.057 227.11 38.1652C226.924 38.2734 226.77 38.4289 226.663 38.616Z" fill="#263238" stroke="#263238" stroke-miterlimit="10"/>
<path d="M226.663 42.276L212.333 67.096C212.226 67.2817 212.17 67.4924 212.17 67.7069C212.17 67.9213 212.227 68.1319 212.334 68.3175C212.442 68.5031 212.596 68.657 212.782 68.7639C212.968 68.8707 213.179 68.9266 213.393 68.926H242.053C242.268 68.9266 242.479 68.8707 242.665 68.7639C242.851 68.657 243.005 68.5031 243.113 68.3175C243.22 68.1319 243.277 67.9213 243.277 67.7069C243.277 67.4924 243.221 67.2817 243.113 67.096L228.783 42.276C228.677 42.0889 228.523 41.9334 228.336 41.8252C228.15 41.717 227.939 41.66 227.723 41.66C227.508 41.66 227.297 41.717 227.11 41.8252C226.924 41.9334 226.77 42.0889 226.663 42.276Z" fill="white" stroke="#263238" stroke-miterlimit="10"/>
<path d="M226.573 56.356V46.946H228.803V56.356L228.513 62.536H226.853L226.573 56.356ZM228.743 64.186V66.966H226.603V64.186H228.743Z" fill="#263238"/>
</svg>
