<svg width="318" height="277" viewBox="0 0 318 277" fill="none" xmlns="http://www.w3.org/2000/svg">
<path d="M243.969 95.259C268.314 92.8245 286.075 71.1157 283.641 46.771C281.207 22.4263 259.498 4.66453 235.153 7.099C210.808 9.53347 193.047 31.2423 195.481 55.587C197.915 79.9317 219.624 97.6935 243.969 95.259Z" stroke="white" stroke-width="1.18336" stroke-linecap="round" stroke-linejoin="round"/>
<path d="M243.713 86.974C263.632 83.7727 277.185 65.0297 273.984 45.1104C270.782 25.191 252.039 11.6383 232.12 14.8396C212.201 18.0408 198.648 36.7838 201.849 56.7032C205.05 76.6225 223.793 90.1752 243.713 86.974Z" stroke="white" stroke-width="1.17749" stroke-linecap="round" stroke-linejoin="round"/>
<path d="M214.61 50.91H237.91V84.53" stroke="white" stroke-width="1.17749" stroke-linecap="round" stroke-linejoin="round"/>
<path d="M71.65 27.47C71.65 27.47 71.65 21.56 63.37 13.28C55.09 5 49.78 0.279999 49.78 0.279999C49.78 0.279999 45.64 13.87 53.32 22.15C58.9718 27.9865 65.1033 33.3386 71.65 38.15V27.47Z" fill="white"/>
<path d="M59.64 64.39C59.64 64.39 59.64 58.48 51.36 50.2C43.08 41.92 37.77 37.2 37.77 37.2C37.77 37.2 33.63 50.79 41.31 59.07C46.9648 64.9033 53.0961 70.2552 59.64 75.07V64.39Z" fill="white"/>
<path d="M71.13 37.54C71.13 37.54 71.75 31.66 80.86 24.3C89.97 16.94 95.75 12.81 95.75 12.81C95.75 12.81 98.43 26.81 89.91 34.18C83.6752 39.3757 77.0151 44.0387 70 48.12L71.13 37.54Z" fill="white"/>
<path d="M56.62 81.14C56.62 81.14 57.86 75.36 67.68 69C77.5 62.64 83.68 59.13 83.68 59.13C83.68 59.13 84.88 73.29 75.68 79.78C68.9338 84.2863 61.8223 88.22 54.42 91.54L56.62 81.14Z" fill="white"/>
<path d="M59.35 128.67C59.35 128.67 59.35 122.76 67.62 114.49C75.89 106.22 81.22 101.49 81.22 101.49C81.22 101.49 85.36 115.09 77.67 123.36C72.023 129.198 65.8947 134.55 59.35 139.36V128.67Z" fill="white"/>
<path d="M59.21 140.28C59.21 140.28 60.05 134.43 53.03 125.06C46.01 115.69 41.42 110.25 41.42 110.25C41.42 110.25 35.42 123.12 41.83 132.41C46.598 138.975 51.9065 145.13 57.7 150.81L59.21 140.28Z" fill="white"/>
<path d="M51.05 174.66C51.05 174.66 51.05 168.75 59.32 160.48C67.59 152.21 72.92 147.48 72.92 147.48C72.92 147.48 77.06 161.08 69.37 169.35C63.723 175.188 57.5947 180.54 51.05 185.35V174.66Z" fill="white"/>
<path d="M56.57 205.84C56.57 205.84 55.08 200.12 61 190C66.92 179.88 70.86 174 70.86 174C70.86 174 78.3 186.11 72.97 196.06C68.9745 203.123 64.3952 209.84 59.28 216.14L56.57 205.84Z" fill="white"/>
<path d="M72.4 26C71.9792 32.1535 71.2214 38.2794 70.13 44.35C66.86 61.25 58.68 72.16 55.41 87.42C52.14 102.68 61.53 122.36 59.02 141.97C56.51 161.58 48.87 172.48 51.02 185.57C53.17 198.66 64.65 234.09 64.65 234.09" stroke="#263238" stroke-width="1.17749" stroke-linecap="round" stroke-linejoin="round"/>
<path d="M71.05 41.47L79.97 34.62" stroke="#263238" stroke-width="1.17749" stroke-linecap="round" stroke-linejoin="round"/>
<path d="M71.46 33.59L67.73 26.95" stroke="#263238" stroke-width="1.17749" stroke-linecap="round" stroke-linejoin="round"/>
<path d="M55.91 86.68C55.91 86.68 63.37 81.08 71.05 75.48" stroke="#263238" stroke-width="1.17749" stroke-linecap="round" stroke-linejoin="round"/>
<path d="M59.64 75C59.64 75 53.42 62.8 46.37 54.71" stroke="#263238" stroke-width="1.17749" stroke-linecap="round" stroke-linejoin="round"/>
<path d="M59.64 137.08C63.9139 129.225 69.3032 122.03 75.64 115.72" stroke="#263238" stroke-width="1.17749" stroke-linecap="round" stroke-linejoin="round"/>
<path d="M58.19 145.38C55.9225 140.039 53.2166 134.895 50.1 130C45.74 123.57 45.1 122.74 45.1 122.74" stroke="#263238" stroke-width="1.17749" stroke-linecap="round" stroke-linejoin="round"/>
<path d="M51.05 185.53C52.939 180.832 55.1856 176.285 57.77 171.93C60.3557 167.894 63.2689 164.078 66.48 160.52" stroke="#263238" stroke-width="1.17749" stroke-linecap="round" stroke-linejoin="round"/>
<path d="M59.27 216.13C59.27 216.13 58.4 209.05 61.51 203.04C64.62 197.03 68.14 189.14 69.6 186.04" stroke="#263238" stroke-width="1.17749" stroke-linecap="round" stroke-linejoin="round"/>
<path d="M17.46 106.44C17.46 106.44 16.81 102.74 21.11 96.65C25.41 90.56 28.22 87 28.22 87C28.22 87 32.29 95.07 28.37 101.1C25.4578 105.366 22.193 109.38 18.61 113.1L17.46 106.44Z" fill="white"/>
<path d="M29 128.29C29 128.29 28.35 124.58 32.64 118.49C36.93 112.4 39.76 108.86 39.76 108.86C39.76 108.86 43.83 116.94 39.91 122.96C36.9991 127.227 33.7342 131.241 30.15 134.96L29 128.29Z" fill="white"/>
<path d="M18.88 112.7C18.88 112.7 17.88 109.08 11.34 105.46C4.79999 101.84 0.749993 99.86 0.749993 99.86C0.749993 99.86 0.589993 108.86 6.74999 112.64C11.2264 115.214 15.9092 117.412 20.75 119.21L18.88 112.7Z" fill="white"/>
<path d="M32.71 138.46C32.71 138.46 31.3 134.97 24.45 132.05C17.6 129.13 13.33 127.61 13.33 127.61C13.33 127.61 14.12 136.61 20.62 139.68C25.3405 141.773 30.2275 143.469 35.23 144.75L32.71 138.46Z" fill="white"/>
<path d="M36.16 168.57C36.16 168.57 35.52 164.86 29.43 160.57C23.34 156.28 19.49 153.89 19.49 153.89C19.49 153.89 18.37 162.89 24.09 167.22C28.2654 170.251 32.6875 172.927 37.31 175.22L36.16 168.57Z" fill="white"/>
<path d="M37.5 175.83C37.5 175.83 36.34 172.25 39.72 165.62C43.1 158.99 45.4 155.07 45.4 155.07C45.4 155.07 50.57 162.49 47.55 169.01C45.2577 173.645 42.5817 178.081 39.55 182.27L37.5 175.83Z" fill="white"/>
<path d="M47.89 205.73C47.89 205.73 48.32 201.99 54.15 197.36C59.98 192.73 63.69 190.13 63.69 190.13C63.69 190.13 65.32 199.02 59.86 203.7C55.8636 206.968 51.6022 209.898 47.12 212.46L47.89 205.73Z" fill="white"/>
<path d="M46.35 196.51C46.35 196.51 45.71 192.8 39.62 188.51C33.53 184.22 29.69 181.83 29.69 181.83C29.69 181.83 28.57 190.83 34.28 195.16C38.4581 198.193 42.8837 200.869 47.51 203.16L46.35 196.51Z" fill="white"/>
<path d="M46.27 216.66C46.27 216.66 46.59 212.91 41.79 207.22C36.99 201.53 33.87 198.22 33.87 198.22C33.87 198.22 30.51 206.62 34.94 212.28C38.2111 216.283 41.8102 220.005 45.7 223.41L46.27 216.66Z" fill="white"/>
<path d="M16.82 105.57C17.7516 109.387 18.8933 113.149 20.24 116.84C24.12 127.08 30.43 133.03 34.14 142.25C37.85 151.47 34.14 164.82 37.8 176.84C41.46 188.86 47.48 194.84 47.53 203.32C47.58 211.8 44.25 235.23 44.25 235.23" stroke="#263238" stroke-width="1.17749" stroke-linecap="round" stroke-linejoin="round"/>
<path d="M19.35 115.15L13.02 111.83" stroke="#263238" stroke-width="1.17749" stroke-linecap="round" stroke-linejoin="round"/>
<path d="M18.24 110.26L19.86 105.69" stroke="#263238" stroke-width="1.17749" stroke-linecap="round" stroke-linejoin="round"/>
<path d="M33.76 141.86C33.76 141.86 28.47 139.16 23.05 136.48" stroke="#263238" stroke-width="1.17749" stroke-linecap="round" stroke-linejoin="round"/>
<path d="M30.15 135C31.7049 130.085 33.7555 125.34 36.27 120.84" stroke="#263238" stroke-width="1.17749" stroke-linecap="round" stroke-linejoin="round"/>
<path d="M36.89 173.87C33.3627 169.407 29.206 165.479 24.55 162.21" stroke="#263238" stroke-width="1.17749" stroke-linecap="round" stroke-linejoin="round"/>
<path d="M38.7 178.92C39.5397 175.332 40.677 171.82 42.1 168.42C44.1 163.91 44.44 163.32 44.44 163.32" stroke="#263238" stroke-width="1.17749" stroke-linecap="round" stroke-linejoin="round"/>
<path d="M47.25 209.72C47.25 209.72 51.44 204.58 54.06 202.65C55.6336 201.486 57.1116 200.199 58.48 198.8" stroke="#263238" stroke-width="1.17749" stroke-linecap="round" stroke-linejoin="round"/>
<path d="M47.53 203.32C45.8335 200.58 43.9313 197.972 41.84 195.52C39.78 193.27 37.5392 191.193 35.14 189.31" stroke="#263238" stroke-width="1.17749" stroke-linecap="round" stroke-linejoin="round"/>
<path d="M45.7 223.41C45.4906 220.54 44.5169 217.777 42.88 215.41C40.27 211.97 37.2 207.41 35.96 205.62" stroke="#263238" stroke-width="1.17749" stroke-linecap="round" stroke-linejoin="round"/>
<path d="M73.26 275.66H35.57C34.8247 275.66 34.11 275.364 33.583 274.837C33.0561 274.31 32.76 273.595 32.76 272.85L27.35 231.14H81.48L76.07 272.85C76.07 273.595 75.774 274.31 75.247 274.837C74.72 275.364 74.0053 275.66 73.26 275.66V275.66Z" fill="#263238"/>
<path d="M81 238.2H27.35C26.2324 238.2 25.1599 237.759 24.3659 236.972C23.5719 236.186 23.1205 235.118 23.11 234V234C23.11 233.444 23.2197 232.893 23.4329 232.379C23.6461 231.865 23.9586 231.398 24.3525 231.005C24.7463 230.612 25.2138 230.301 25.7282 230.089C26.2425 229.877 26.7937 229.769 27.35 229.77H81C81.5563 229.769 82.1074 229.877 82.6218 230.089C83.1362 230.301 83.6037 230.612 83.9975 231.005C84.3914 231.398 84.7038 231.865 84.917 232.379C85.1302 232.893 85.24 233.444 85.24 234V234C85.2294 235.118 84.7781 236.186 83.9841 236.972C83.19 237.759 82.1176 238.2 81 238.2Z" fill="#263238"/>
<path d="M165.55 122.65C165.55 122.65 170.66 113.82 172.55 117.54C174.44 121.26 173.95 129.15 171.16 132.87C168.37 136.59 167.44 138.44 166.05 135.65C164.66 132.86 165.55 122.65 165.55 122.65Z" fill="white" stroke="#263238" stroke-width="1.17749" stroke-linecap="round" stroke-linejoin="round"/>
<path d="M104.7 129.61C104.7 129.61 98.7 122.18 97.26 127.29C95.82 132.4 102.84 138.9 104.7 139.83C106.178 140.392 107.779 140.554 109.34 140.3L104.7 129.61Z" fill="white" stroke="#263238" stroke-width="1.17749" stroke-linecap="round" stroke-linejoin="round"/>
<path d="M126.94 161.51C126.94 161.51 61.65 181.29 61.65 185C61.65 188.71 59.78 261.86 61.27 266C62.76 270.14 75.08 274.2 81.8 274.2V275.7H225.07L218 236.14C218 236.14 258.3 234.64 259 231.66C259.7 228.68 223.65 169 220.29 167.12C216.93 165.24 165.75 159.65 159.78 159.65C153.81 159.65 141.12 157 126.94 161.51Z" fill="white"/>
<path opacity="0.3" d="M185.33 275.69C94.86 242.44 98.9 225.5 98.9 225.5L68.9 271.35C73.0135 273.025 77.383 273.986 81.82 274.19V275.69H185.33Z" fill="black"/>
<path opacity="0.3" d="M161.93 179.44C161.93 179.44 192.64 177.82 212.84 163.28L156.28 156L161.93 179.44Z" fill="black"/>
<path d="M126.94 161.51C126.94 161.51 61.65 181.29 61.65 185C61.65 188.71 59.78 261.86 61.27 266C62.76 270.14 75.08 274.2 81.8 274.2V275.7H225.07L218 236.14C218 236.14 258.3 234.64 259 231.66C259.7 228.68 223.65 169 220.29 167.12C216.93 165.24 165.75 159.65 159.78 159.65C153.81 159.65 141.12 157 126.94 161.51Z" stroke="#263238" stroke-width="1.17749" stroke-linecap="round" stroke-linejoin="round"/>
<path d="M216.72 217.76L206.02 185.67" stroke="#263238" stroke-width="1.17749" stroke-linecap="round" stroke-linejoin="round"/>
<path d="M74.08 186.38C74.08 186.38 91.91 196.38 97.62 219.9" stroke="#263238" stroke-width="1.17749" stroke-linecap="round" stroke-linejoin="round"/>
<path d="M74 230.91C74 230.91 62.06 238.75 59.45 240.61C56.84 242.47 56.09 262.26 58.7 267.85C61.31 273.44 72.51 276.06 79.97 272.33C87.43 268.6 90.79 251.06 88.18 242.11C85.57 233.16 74 230.91 74 230.91Z" fill="#263238" stroke="#263238" stroke-width="1.17749" stroke-linecap="round" stroke-linejoin="round"/>
<path d="M117.62 165.24C117.62 165.24 118.74 183.15 122.09 195.09C125.44 207.03 131.79 222.7 131.79 222.7L153.06 205.91L181.79 213C181.79 213 176.2 183.53 172.09 173.83C167.98 164.13 159.78 156.29 159.78 156.29C159.78 156.29 128.44 152.18 117.62 165.24Z" fill="#263238" stroke="#263238" stroke-width="1.17749" stroke-linecap="round" stroke-linejoin="round"/>
<path d="M121.72 162.26C121.72 162.26 126.94 175.32 132.54 186.51C138.14 197.7 151.54 213.38 154.93 210.02C158.32 206.66 161.64 180.54 161.64 174.57V156.66C161.64 156.66 151.2 165.24 142.99 165.24C134.78 165.24 121.72 162.26 121.72 162.26Z" fill="white"/>
<path d="M161.64 156.66C161.64 156.66 151.2 165.24 142.99 165.24C134.78 165.24 121.72 162.24 121.72 162.24C121.72 162.24 124.37 168.87 127.92 176.73C134.34 181.007 142.118 182.753 149.75 181.63C154.43 180.89 158.35 178.34 161.64 174.82V156.66V156.66Z" fill="white"/>
<path opacity="0.7" d="M161.64 156.66C161.64 156.66 151.2 165.24 142.99 165.24C134.78 165.24 121.72 162.24 121.72 162.24C121.72 162.24 124.37 168.87 127.92 176.73C134.34 181.007 142.118 182.753 149.75 181.63C154.43 180.89 158.35 178.34 161.64 174.82V156.66V156.66Z" fill="white"/>
<path d="M121.72 162.26C121.72 162.26 126.94 175.32 132.54 186.51C138.14 197.7 151.54 213.38 154.93 210.02C158.32 206.66 161.64 180.54 161.64 174.57V156.66C161.64 156.66 151.2 165.24 142.99 165.24C134.78 165.24 121.72 162.26 121.72 162.26Z" stroke="#263238" stroke-width="1.17749" stroke-linecap="round" stroke-linejoin="round"/>
<path d="M103.3 125.9C103.3 125.9 111.2 151.9 116.3 158.9C121.4 165.9 135.35 172.84 145.57 172.37C155.79 171.9 164.15 161.69 166.01 151.47C167.87 141.25 166.47 118.02 166.47 118.02C166.47 118.02 164.62 107.8 156.72 94.33C148.82 80.86 108.87 92 104.72 102.22C100.57 112.44 103.3 125.9 103.3 125.9Z" fill="white" stroke="#263238" stroke-width="1.17749" stroke-linecap="round" stroke-linejoin="round"/>
<path d="M134.89 146.34C134.89 146.34 139.54 152.84 145.11 145.87" stroke="#263238" stroke-width="1.17749" stroke-linecap="round" stroke-linejoin="round"/>
<path d="M120.49 136.12C120.49 136.12 124.67 132.4 130.25 136.12" stroke="#263238" stroke-width="1.17749" stroke-linecap="round" stroke-linejoin="round"/>
<path d="M146.51 133.33C146.51 133.33 148.37 129.61 155.33 129.61" stroke="#263238" stroke-width="1.17749" stroke-linecap="round" stroke-linejoin="round"/>
<path d="M118.17 128.68C118.17 128.68 120.96 124.04 130.25 123.11" stroke="#263238" stroke-width="2.35497" stroke-linecap="round" stroke-linejoin="round"/>
<path d="M144.14 127.26C144.14 127.26 148.66 117.87 156.73 120.79" stroke="#263238" stroke-width="2.35497" stroke-linecap="round" stroke-linejoin="round"/>
<path d="M145.58 157C145.635 157.516 145.532 158.036 145.285 158.493C145.038 158.949 144.659 159.32 144.197 159.557C143.736 159.793 143.213 159.885 142.699 159.819C142.184 159.753 141.701 159.533 141.314 159.188C140.927 158.843 140.653 158.389 140.529 157.885C140.405 157.381 140.436 156.852 140.618 156.366C140.801 155.88 141.126 155.461 141.551 155.164C141.976 154.867 142.481 154.705 143 154.7C143.647 154.664 144.281 154.886 144.765 155.318C145.248 155.749 145.541 156.353 145.58 157V157Z" fill="#263238"/>
<path d="M130.53 137.51C130.532 137.789 130.451 138.063 130.297 138.296C130.144 138.529 129.924 138.712 129.667 138.82C129.409 138.928 129.125 138.957 128.851 138.904C128.577 138.851 128.325 138.717 128.127 138.521C127.928 138.324 127.793 138.073 127.738 137.799C127.683 137.525 127.71 137.241 127.816 136.983C127.923 136.725 128.104 136.504 128.336 136.348C128.568 136.193 128.841 136.11 129.12 136.11C129.492 136.11 129.849 136.257 130.113 136.519C130.378 136.782 130.527 137.138 130.53 137.51V137.51Z" fill="#263238"/>
<path d="M155 132.26C155 132.539 154.917 132.812 154.762 133.044C154.606 133.276 154.385 133.457 154.127 133.564C153.869 133.67 153.585 133.697 153.311 133.642C153.037 133.587 152.786 133.452 152.589 133.253C152.393 133.055 152.259 132.803 152.206 132.529C152.153 132.255 152.182 131.971 152.29 131.713C152.398 131.456 152.581 131.236 152.814 131.083C153.047 130.929 153.321 130.848 153.6 130.85C153.785 130.85 153.968 130.887 154.138 130.958C154.309 131.029 154.463 131.133 154.593 131.264C154.724 131.395 154.827 131.55 154.896 131.721C154.966 131.892 155.001 132.075 155 132.26Z" fill="#263238"/>
<path d="M125.14 69.69H108.88C99.59 69.69 87.51 94.31 87.97 105.92C88.43 117.53 98.66 124.97 101.45 126.36C104.24 127.75 109.34 130.08 109.34 128.68C109.34 127.28 114.92 116.14 114.92 116.14C114.92 116.14 113.52 122.65 117.24 122.65C120.96 122.65 132.57 110.57 132.57 110.57C132.57 110.57 133.04 120.32 136.75 120.32C140.46 120.32 148.37 105.92 148.37 105.92L156.73 115.21L159.52 109.64C159.52 109.64 162.77 122.64 165.52 122.64C168.27 122.64 170.63 116.13 172.03 109.64C173.43 103.15 176.21 92.45 171.56 82.69C166.91 72.93 153.45 64.11 142.3 64.11C131.15 64.11 125.14 69.69 125.14 69.69Z" fill="#263238" stroke="#263238" stroke-width="1.17749" stroke-linecap="round" stroke-linejoin="round"/>
<path d="M119.39 73.4C119.39 73.4 107.95 74.72 102.67 78.24C99.6458 80.178 97.2217 82.9206 95.67 86.16L107.11 80.88C107.11 80.88 99.63 86.6 98.75 89.24C98.0023 91.9897 97.4179 94.7813 97 97.6L104 95.4C104 95.4 101.09 97.84 101.36 100.24C101.63 102.64 102.68 108.16 102.68 108.16L111.04 100.24L113.24 105.96L120.24 100.24L120.68 104.64L125.52 98.04L129.52 102.04L132.16 97.2C132.16 97.2 134.36 99.4 135.24 94.12C136.12 88.84 136.56 86.64 136.56 86.64L141.4 92.36L143.16 99.84L144.48 91.92L148.48 95.44L149.8 88.84L154.64 91.48L156.4 85.32L166.96 88.84C166.96 88.84 163.88 77.84 161.24 74.76C158.6 71.68 145.84 70.36 145.84 70.36L144.52 68.16C144.52 68.16 129.52 71.24 127.8 72.16C126.342 73.0136 124.998 74.0485 123.8 75.24" stroke="#6B6B6B" stroke-width="1.17749" stroke-linecap="round" stroke-linejoin="round"/>
<path d="M91.87 152.93C90.2086 151.084 89.2802 148.694 89.26 146.21C89.26 142.11 93.74 133.21 94.86 133.21C95.98 133.21 98.21 135.44 98.21 135.44C98.21 135.44 96.35 144.44 95.6 147.76C95.0207 149.877 93.696 151.713 91.87 152.93V152.93Z" fill="white" stroke="#263238" stroke-width="1.17749" stroke-linecap="round" stroke-linejoin="round"/>
<path d="M94.48 156.66C94.48 156.66 90.75 152.18 90.75 150.32C90.75 148.46 96.75 135.39 98.21 135.39C99.67 135.39 104.21 137.26 105.3 138.01C106.39 138.76 106.05 142.48 106.05 145.1C106.05 147.72 99.33 159.27 99.33 159.27L94.48 156.66Z" fill="white" stroke="#263238" stroke-width="1.17749" stroke-linecap="round" stroke-linejoin="round"/>
<path d="M102.32 137.26C102.32 137.26 92.99 154.05 94.48 156.66C95.97 159.27 110.9 175.32 110.9 175.32C110.9 175.32 68.36 238.75 64.26 245.09C60.16 251.43 59.41 260.76 61.26 265.99C63.11 271.22 74.32 276.06 82.16 275.69C90 275.32 95.96 265.61 98.16 256.69C100.36 247.77 120.6 182 122.47 176.81C124.34 171.62 126.94 167.48 124.33 164.87C121.72 162.26 111.65 152.56 111.65 152.56C111.65 152.56 114.65 149.95 114.26 146.96C113.87 143.97 107.54 138 102.32 137.26Z" fill="white"/>
<path d="M98.21 256.66C100.45 247.66 120.6 182.03 122.47 176.81C124.34 171.59 126.94 167.48 124.33 164.87C121.98 162.52 113.59 154.43 111.95 152.87H111.89C113.35 154.78 121.07 165.12 120.27 171.1C119.39 177.7 85.51 257.35 81.11 262.63C77.74 266.63 68.73 269.15 64.67 270.1C69.766 273.767 75.8918 275.727 82.17 275.7C90 275.31 96 265.61 98.21 256.66Z" fill="white"/>
<path opacity="0.7" d="M98.21 256.66C100.45 247.66 120.6 182.03 122.47 176.81C124.34 171.59 126.94 167.48 124.33 164.87C121.98 162.52 113.59 154.43 111.95 152.87H111.89C113.35 154.78 121.07 165.12 120.27 171.1C119.39 177.7 85.51 257.35 81.11 262.63C77.74 266.63 68.73 269.15 64.67 270.1C69.766 273.767 75.8918 275.727 82.17 275.7C90 275.31 96 265.61 98.21 256.66Z" fill="white"/>
<path d="M102.32 137.26C102.32 137.26 92.99 154.05 94.48 156.66C95.97 159.27 110.9 175.32 110.9 175.32C110.9 175.32 68.36 238.75 64.26 245.09C60.16 251.43 59.41 260.76 61.26 265.99C63.11 271.22 74.32 276.06 82.16 275.69C90 275.32 95.96 265.61 98.16 256.69C100.36 247.77 120.6 182 122.47 176.81C124.34 171.62 126.94 167.48 124.33 164.87C121.72 162.26 111.65 152.56 111.65 152.56C111.65 152.56 114.65 149.95 114.26 146.96C113.87 143.97 107.54 138 102.32 137.26Z" stroke="#263238" stroke-width="1.17749" stroke-linecap="round" stroke-linejoin="round"/>
<path d="M107.91 145.47L106.05 150L111.65 152.61L111.89 152.91" stroke="#263238" stroke-width="1.17749" stroke-linecap="round" stroke-linejoin="round"/>
<path d="M219.1 214.5C219.1 214.5 222.46 208.9 226.57 207.41C230.68 205.92 246.72 204.41 253.06 206.66C259.4 208.91 263.13 217.11 264.25 221.58C265.37 226.05 265 232.41 261.25 235.76C257.5 239.11 252.67 238.38 247.44 236.88C242.21 235.38 231.77 229.42 226.17 226.06C220.57 222.7 219.48 216.73 219.1 214.5Z" fill="#263238" stroke="#263238" stroke-width="1.17749" stroke-linecap="round" stroke-linejoin="round"/>
<path d="M166.87 208.15C166.87 208.15 137.39 232.41 133.29 234.64C129.19 236.87 131.05 240.99 132.54 242.48C134.03 243.97 143.73 252.93 148.21 255.91C152.69 258.89 159.03 253.67 160.52 252.91C162.01 252.15 160.15 248.8 160.15 248.8C160.15 248.8 171.72 242.46 173.58 236.49C174.829 231.857 175.58 227.103 175.82 222.31C175.82 222.31 222.82 241.31 234.03 245.44C245.24 249.57 252.31 249.92 257.54 244.7C262.77 239.48 263.13 228.65 260.54 223.06C257.95 217.47 241.54 212.24 234.05 212.24C226.56 212.24 173.6 205.89 170.25 207.01L166.87 208.15Z" fill="white"/>
<path d="M257.54 244.72C259.404 242.716 260.708 240.257 261.32 237.59C241.69 236.38 184.11 214.59 178.32 214.21C171.72 213.77 170.84 223.89 164.23 232.21C157.62 240.53 153.71 242.81 148 243.69C144.1 244.29 143.48 249.19 143.47 252.25C145.27 253.74 146.96 255.07 148.22 255.91C152.7 258.91 159.04 253.67 160.53 252.91C162.02 252.15 160.16 248.8 160.16 248.8C160.16 248.8 171.73 242.46 173.59 236.49C174.839 231.857 175.59 227.103 175.83 222.31C175.83 222.31 222.83 241.31 234.04 245.44C245.25 249.57 252.31 249.94 257.54 244.72Z" fill="white"/>
<path opacity="0.7" d="M257.54 244.72C259.404 242.716 260.708 240.257 261.32 237.59C241.69 236.38 184.11 214.59 178.32 214.21C171.72 213.77 170.84 223.89 164.23 232.21C157.62 240.53 153.71 242.81 148 243.69C144.1 244.29 143.48 249.19 143.47 252.25C145.27 253.74 146.96 255.07 148.22 255.91C152.7 258.91 159.04 253.67 160.53 252.91C162.02 252.15 160.16 248.8 160.16 248.8C160.16 248.8 171.73 242.46 173.59 236.49C174.839 231.857 175.59 227.103 175.83 222.31C175.83 222.31 222.83 241.31 234.04 245.44C245.25 249.57 252.31 249.94 257.54 244.72Z" fill="white"/>
<path d="M166.87 208.15C166.87 208.15 137.39 232.41 133.29 234.64C129.19 236.87 131.05 240.99 132.54 242.48C134.03 243.97 143.73 252.93 148.21 255.91C152.69 258.89 159.03 253.67 160.52 252.91C162.01 252.15 160.15 248.8 160.15 248.8C160.15 248.8 171.72 242.46 173.58 236.49C174.829 231.857 175.58 227.103 175.82 222.31C175.82 222.31 222.82 241.31 234.03 245.44C245.24 249.57 252.31 249.92 257.54 244.7C262.77 239.48 263.13 228.65 260.54 223.06C257.95 217.47 241.54 212.24 234.05 212.24C226.56 212.24 173.6 205.89 170.25 207.01L166.87 208.15Z" stroke="#263238" stroke-width="1.17749" stroke-linecap="round" stroke-linejoin="round"/>
<path d="M160.15 248.82L155.3 251.06" stroke="#263238" stroke-width="1.17749" stroke-linecap="round" stroke-linejoin="round"/>
<path d="M173.96 215.99L175.82 222.33L181.05 224.94L178.06 212.63L173.96 215.99Z" fill="#263238" stroke="#263238" stroke-width="1.17749" stroke-linecap="round" stroke-linejoin="round"/>
<path d="M173.4 217.48C178.244 217.48 182.17 214.391 182.17 210.58C182.17 206.769 178.244 203.68 173.4 203.68C168.556 203.68 164.63 206.769 164.63 210.58C164.63 214.391 168.556 217.48 173.4 217.48Z" fill="white" stroke="#263238" stroke-width="1.17749" stroke-linecap="round" stroke-linejoin="round"/>
<path d="M13.61 275.66L317 276" stroke="#263238" stroke-width="1.17749" stroke-linecap="round" stroke-linejoin="round"/>
</svg>
