<svg width="305" height="337" viewBox="0 0 305 337" fill="none" xmlns="http://www.w3.org/2000/svg">
<path d="M254.5 336.64C273.653 336.64 289.18 335.109 289.18 333.22C289.18 331.331 273.653 329.8 254.5 329.8C235.347 329.8 219.82 331.331 219.82 333.22C219.82 335.109 235.347 336.64 254.5 336.64Z" fill="#263238"/>
<path d="M254 72.67C254 72.67 260.1 72.67 261.48 77.09C262.86 81.51 259 87.36 254 88.68C249 90 244.58 85.44 244.87 81.04C245.16 76.64 251.22 72.55 254 72.67Z" fill="#263238" stroke="#263238" stroke-linecap="round" stroke-linejoin="round"/>
<path d="M289.87 274.19C289.87 274.19 291.66 273.51 291.94 270.78C292.22 268.05 288.73 261.68 288.74 258.24C288.75 254.8 288.5 248.76 287.74 247.65C286.98 246.54 282.5 246.77 279.68 249.06C276.86 251.35 284.29 256.24 286.3 261.78C288.31 267.32 287.04 268.05 287.82 270.54C288.199 271.904 288.902 273.156 289.87 274.19V274.19Z" fill="white" stroke="#263238" stroke-linecap="round" stroke-linejoin="round"/>
<path d="M205.16 208.8C205.16 208.8 207 228.08 208 230.42C209 232.76 216.73 234.23 219.88 235.42C223.03 236.61 256.31 247.2 263 251.15C269.69 255.1 279.47 263.49 283.72 267.36C287.97 271.23 288.72 275.79 289.91 274.19C291.1 272.59 289.5 266.4 288.29 263.01C287.08 259.62 285.71 257.93 285.44 255.49C285.17 253.05 284.5 249.55 282 248.78C279.5 248.01 275.4 251.03 275.4 251.03C275.4 251.03 272.52 250.57 267.17 245.72C261.82 240.87 251.65 234.17 247.65 231.18C243.65 228.19 231.5 225.92 227.79 225.18C225.607 224.772 223.481 224.1 221.46 223.18L223.77 212.23C223.77 212.23 208 210.11 205.16 208.8Z" fill="white" stroke="#263238" stroke-linecap="round" stroke-linejoin="round"/>
<path d="M285.4 255.49C285.14 253.06 284.46 249.55 281.96 248.78C280.2 248.24 277.67 249.56 276.31 250.4C278.863 252.841 281.061 255.628 282.84 258.68C285.49 263.34 285.51 266.22 285.07 268.78C288.12 272.24 288.82 275.59 289.87 274.19C291.06 272.59 289.46 266.4 288.25 263.01C287.04 259.62 285.67 257.93 285.4 255.49Z" fill="white" stroke="#263238" stroke-linecap="round" stroke-linejoin="round"/>
<path d="M231.19 316.57C232.067 317.194 233.084 317.593 234.151 317.731C235.219 317.869 236.304 317.741 237.31 317.36C240.54 315.97 244.59 310.02 245.96 308.43C247.33 306.84 253.85 303.56 254.65 300.72C255.45 297.88 250.85 294.14 250.85 294.14C249.417 296.826 247.541 299.25 245.3 301.31C241.7 304.56 242.23 306.16 238.07 309.87C233.91 313.58 231.19 316.57 231.19 316.57Z" fill="white" stroke="#263238" stroke-linecap="round" stroke-linejoin="round"/>
<path d="M233.05 216.88C233.05 216.88 232.86 229.75 233.9 236.02C234.94 242.29 238.9 283.88 237.9 293.02C236.9 302.16 233.79 311.37 231.76 314.81C229.73 318.25 234.7 316.23 237.67 314.57C240.64 312.91 245.15 304.4 246.12 303.1C247.09 301.8 250.93 301.64 251.4 296.93C251.87 292.22 246.11 292.17 246.48 285.76C246.85 279.35 252.21 259.76 250.25 251.4C248.29 243.04 246.01 232.47 246.38 228.86C246.75 225.25 248.23 216.16 248.23 216.16L233.05 216.88Z" fill="white" stroke="#263238" stroke-linecap="round" stroke-linejoin="round"/>
<path d="M247.73 290.48C246.043 294.825 243.851 298.957 241.2 302.79C238.46 306.46 236.39 306.42 235.29 305.96C234.442 309.034 233.265 312.008 231.78 314.83C229.78 318.27 234.72 316.25 237.69 314.59C240.66 312.93 245.17 304.42 246.14 303.12C247.11 301.82 250.95 301.66 251.42 296.95C251.74 293.81 249.3 292.73 247.73 290.48Z" fill="white" stroke="#263238" stroke-linecap="round" stroke-linejoin="round"/>
<path d="M303.05 180.16C302.05 177.36 301.05 173.64 296.74 171.23C292.43 168.82 290.63 167.54 290.63 167.54C290.63 167.54 279.31 144 276.54 139.42C273.77 134.84 271.71 131.9 271.71 131.9C271.71 131.9 264.09 111.11 263.18 107.59C262.27 104.07 262.91 101.43 258.73 99.92C254.55 98.41 245.12 97.28 241.73 96.76C239.08 96.2017 236.506 95.3324 234.06 94.17C234.06 94.17 226.42 93.04 223.8 92.23C217.398 89.8058 211.124 87.059 205 84C201.42 82 197 77.42 197 77.42C197 77.42 187.13 55.68 184.78 50.42C182.84 46.06 180.98 42.2 180.38 40.98C179.884 39.6204 179.473 38.231 179.15 36.82C179.07 34.23 179.37 31.42 179.15 29.82C178.93 28.22 178.64 27.52 178.41 25.65C178.18 23.78 176.41 24.95 176.69 27.04L176.51 28.25L174.29 18.68C174.29 18.68 172.88 17.68 172.66 18.76L173.72 25.84L173.32 25.96L171.77 17.23C171.77 17.23 171.54 16.32 170.27 16.47C170.27 16.47 169.59 16.67 169.69 18.47L171.1 26.61L170.29 26.71L169 17.86C169 17.86 168.45 17.23 168 17.75C167.626 18.4845 167.523 19.3273 167.71 20.13C167.82 21.05 168.59 27.4 168.59 27.4L167.31 22.63C167.31 22.63 166.1 21.38 166.31 23.7C166.707 26.6032 167.376 29.4625 168.31 32.24C169.162 34.3381 170.47 36.2203 172.14 37.75C173.42 38.65 174.05 39.04 174.14 39.5C174.14 39.61 174.58 41.04 175.26 43.2H175.34C176.67 47.26 187.01 78.92 188.88 83.83C190.88 89.08 215.11 107.77 215.11 107.77C215.11 107.77 210.52 119.21 212.21 125.69C213.44 129.997 215.409 134.058 218.03 137.69C218.03 137.69 214.13 142.34 207.51 159.52C200.89 176.7 202.32 212.37 202.32 212.37C210.437 216.893 219.513 219.422 228.8 219.75C244.08 220.22 249.95 219.19 249.95 219.19C249.95 219.19 256.87 179.51 254.02 164.97C252.311 156.236 249.865 147.662 246.71 139.34L254.34 121.01C254.34 121.01 267.25 143.01 272.16 151.49C277.07 159.97 289.16 172.49 289.16 172.49C289.16 172.49 289.37 175.76 290.83 177.35C291.864 178.414 293.046 179.323 294.34 180.05C294.34 180.05 291.78 185.74 293.34 186.05C294.9 186.36 296.08 180.38 296.08 180.38C296.08 180.38 294.93 186.38 296.16 186.7C297.39 187.02 298.7 181.19 298.7 181.19C298.7 181.19 297.42 186.65 298.85 186.79C300.28 186.93 300.9 180.87 300.9 180.87C300.9 180.87 301.83 185.87 302.78 185.39C303.73 184.91 304 183 303.05 180.16Z" fill="white" stroke="#263238" stroke-linecap="round" stroke-linejoin="round"/>
<path d="M176.54 28.19C176.642 28.7156 176.57 29.2603 176.333 29.7407C176.096 30.2211 175.709 30.6107 175.23 30.85C173.52 31.76 174.57 33.85 176.01 35.62" stroke="#263238" stroke-linecap="round" stroke-linejoin="round"/>
<path d="M293.09 174.44C293.742 175.387 294.516 176.244 295.39 176.99C296.397 177.422 297.468 177.689 298.56 177.78C298.56 177.78 299.42 182.98 301.13 182.22C302.84 181.46 300.54 176.59 299.74 175.34C299.39 174.709 298.884 174.179 298.27 173.8" fill="white"/>
<path d="M293.09 174.44C293.742 175.387 294.516 176.244 295.39 176.99C296.397 177.422 297.468 177.689 298.56 177.78C298.56 177.78 299.42 182.98 301.13 182.22C302.84 181.46 300.54 176.59 299.74 175.34C299.39 174.709 298.884 174.179 298.27 173.8" stroke="#263238" stroke-linecap="round" stroke-linejoin="round"/>
<path d="M228.71 219.67C243.99 220.14 249.86 219.11 249.86 219.11C249.86 219.11 256.78 179.43 253.93 164.89C253.75 163.96 253.56 163.04 253.36 162.14C238.056 165.284 222.204 164.475 207.3 159.79C200.83 177.09 202.23 212.29 202.23 212.29C210.347 216.813 219.423 219.342 228.71 219.67V219.67Z" fill="#263238" stroke="#263238" stroke-linecap="round" stroke-linejoin="round"/>
<path d="M220.06 173.77C220.06 173.77 226.22 184.57 233.16 189.96" stroke="white" stroke-linecap="round" stroke-linejoin="round"/>
<path d="M231.21 194.61C231.97 195.15 232.74 195.66 233.55 196.13" stroke="white" stroke-linecap="round" stroke-linejoin="round"/>
<path d="M220.83 183.79C223.074 187.008 225.692 189.949 228.63 192.55" stroke="white" stroke-linecap="round" stroke-linejoin="round"/>
<path d="M278.41 142.85C277.63 141.35 276.97 140.15 276.54 139.42C273.76 134.81 271.71 131.9 271.71 131.9C271.71 131.9 264.09 111.11 263.18 107.59C262.27 104.07 262.91 101.43 258.73 99.92C254.55 98.41 245.12 97.28 241.73 96.76C239.08 96.2017 236.506 95.3324 234.06 94.17C234.06 94.17 226.42 93.04 223.8 92.23C217.398 89.8058 211.124 87.059 205 84C201.42 82 197 77.42 197 77.42C197 77.42 194.28 71.42 191.36 64.98C188.624 65.7347 185.949 66.6975 183.36 67.86C185.79 75.18 188.01 81.77 188.78 83.8C190.78 89.05 215.01 107.74 215.01 107.74C215.01 107.74 210.42 119.18 212.11 125.66C213.34 129.967 215.309 134.028 217.93 137.66C217.93 137.66 214.03 142.31 207.41 159.49C206.789 161.147 206.258 162.836 205.82 164.55C215.66 168.87 232.82 173.55 254.36 168.16C254.25 166.99 254.11 165.91 253.92 164.94C252.211 156.206 249.765 147.632 246.61 139.31L254.24 120.98C254.24 120.98 264.66 138.77 270.34 148.5C273.15 146.794 275.846 144.907 278.41 142.85V142.85Z" fill="white" stroke="#263238" stroke-linecap="round" stroke-linejoin="round"/>
<path d="M210.04 93.24L215.02 107.74L205.03 88.61" stroke="#263238" stroke-linecap="round" stroke-linejoin="round"/>
<path d="M254.25 120.93L250.12 118.67" stroke="#263238" stroke-linecap="round" stroke-linejoin="round"/>
<path d="M259.36 102.48C259.36 102.48 255.13 103.25 252.43 109.81" stroke="#263238" stroke-linecap="round" stroke-linejoin="round"/>
<path d="M227.38 132.16C227.38 132.16 232.38 138.71 240.1 138.71" stroke="#263238" stroke-linecap="round" stroke-linejoin="round"/>
<path d="M251.49 98.24C247.68 97.57 243.7 97.06 241.74 96.76C239.09 96.2017 236.516 95.3324 234.07 94.17C234.07 94.17 226.43 93.04 223.81 92.23C223.54 92.14 223.13 92 222.65 91.82C222.4 96.28 222.21 106.55 225.03 113.99C228.72 123.74 232.78 125.76 232.78 125.76C232.78 125.76 245.13 111.34 248.78 104.14C250.07 101.5 250.93 99.6 251.49 98.24Z" fill="#263238" stroke="#263238" stroke-linecap="round" stroke-linejoin="round"/>
<path d="M237.42 52.56C237.42 52.56 230.72 53.21 227.08 58.56C223.44 63.91 222.27 68.9 221.03 74.56C219.79 80.22 221.23 85.64 223.2 85.84L229.99 86.53C229.99 86.53 229.99 101.34 230.39 106.47C230.79 111.6 232.39 115.29 233.88 113.47C235.37 111.65 240.28 98.47 240.28 98.47L241.08 86.17C241.08 86.17 244.68 83.44 250 78.89C255.32 74.34 256.85 65.89 252.95 58.63C249.05 51.37 237.42 52.56 237.42 52.56Z" fill="white" stroke="#263238" stroke-linecap="round" stroke-linejoin="round"/>
<path d="M241.38 77.16C241.38 77.16 242.6 77.66 242.69 76.78C242.78 75.9 245.46 74.41 246.51 76.54" stroke="#263238" stroke-linecap="round" stroke-linejoin="round"/>
<path d="M242.69 76.78C242.69 76.78 245.8 77.35 243.98 79.07" stroke="#263238" stroke-linecap="round" stroke-linejoin="round"/>
<path d="M227.05 65.71C226.73 66.71 226.05 67.38 225.6 67.22C225.15 67.06 224.99 66.14 225.31 65.14C225.63 64.14 226.31 63.47 226.77 63.63C227.23 63.79 227.37 64.72 227.05 65.71Z" fill="#263238"/>
<path d="M233.42 69C233.09 70 232.42 70.67 231.96 70.51C231.5 70.35 231.36 69.42 231.68 68.43C232 67.44 232.68 66.76 233.13 66.92C233.58 67.08 233.74 68 233.42 69Z" fill="#263238"/>
<path d="M224.93 72.57C224.93 72.57 224.93 73.62 226.64 73.79" stroke="#263238" stroke-linecap="round" stroke-linejoin="round"/>
<path d="M224.47 77.1C224.47 77.1 229.32 78.38 231.77 76.1" stroke="#263238" stroke-linecap="round" stroke-linejoin="round"/>
<path d="M233.45 63.48C234.691 63.3886 235.918 63.7897 236.865 64.5964C237.812 65.4031 238.403 66.5505 238.51 67.79" stroke="#263238" stroke-linecap="round" stroke-linejoin="round"/>
<path d="M226.36 61.06C226.36 61.06 227.91 58.73 229.36 62.41" stroke="#263238" stroke-linecap="round" stroke-linejoin="round"/>
<path d="M227.28 77.78C227.28 77.78 229.43 81.14 230.43 80.33C231.43 79.52 230.64 76.95 230.64 76.95C229.544 77.3155 228.42 77.593 227.28 77.78Z" fill="#263238" stroke="#263238" stroke-linecap="round" stroke-linejoin="round"/>
<path d="M252.54 78.89C257.87 74.34 258.54 66.34 254.54 59.14C249.35 49.78 237.41 52.56 237.41 52.56C236.15 52.7279 234.914 53.0469 233.73 53.51C236.23 53.87 241.78 55.24 244.11 60.51C247.17 67.45 242.67 74.73 242.67 74.73C242.67 74.73 248.47 72.01 248.27 76.19C248.168 77.6887 247.507 79.0945 246.418 80.1295C245.329 81.1645 243.892 81.7535 242.39 81.78C241.208 81.5965 240.055 81.2604 238.96 80.78C238.932 81.7587 239.116 82.7319 239.499 83.6329C239.882 84.534 240.455 85.3414 241.18 86C241.79 85.56 247.72 83 252.54 78.89Z" fill="#263238" stroke="#263238" stroke-linecap="round" stroke-linejoin="round"/>
<path d="M232.39 54.14C232.39 54.14 235.39 55.75 238.01 63.14C240.63 70.53 245.85 69.77 248.86 69.14C251.87 68.51 254.09 68.34 254.09 68.34C251.779 66.1998 250.169 63.4113 249.47 60.34C248.26 55.15 240.22 43.09 232.39 54.14Z" fill="#263238" stroke="#263238" stroke-linecap="round" stroke-linejoin="round"/>
<path d="M101 56C101 56 103 53 99.46 51.23C95.5655 49.4524 91.1925 49.0123 87.0218 49.9781C82.8512 50.9439 79.1168 53.2615 76.4 56.57C67.91 66.37 74.76 75.83 79.18 80.57C83.6 85.31 90 87.45 90 88.3C89.5326 89.9952 88.9752 91.6642 88.33 93.3L103.26 93.96C103.26 93.96 105.08 88.39 106.71 86.53C108.34 84.67 111.29 87.53 113.5 82.82C115.71 78.11 113 71.88 113 71.88C113 71.88 114.41 66.54 112.41 66.34C110.41 66.14 108.93 63.68 107.51 60.65C106.09 57.62 101 56 101 56Z" fill="white" stroke="#263238" stroke-linecap="round" stroke-linejoin="round"/>
<path d="M107.59 62.18C107.59 62.18 105.59 59.05 105.32 63.33" stroke="#263238" stroke-linecap="round" stroke-linejoin="round"/>
<path d="M113.69 74.8C113.69 74.8 113.25 76.14 110.95 74.52" stroke="#263238" stroke-linecap="round" stroke-linejoin="round"/>
<path d="M109.26 65.93C109.75 66.87 109.91 67.75 109.61 67.93C109.31 68.11 108.67 67.45 108.18 66.52C107.69 65.59 107.53 64.7 107.83 64.52C108.13 64.34 108.77 65 109.26 65.93Z" fill="#263238"/>
<path d="M97.6 78.8C97.312 78.7503 97.0371 78.6424 96.7922 78.4829C96.5472 78.3234 96.3374 78.1156 96.1755 77.8723C96.0136 77.6289 95.903 77.3551 95.8504 77.0676C95.7979 76.7801 95.8046 76.4849 95.87 76.2C96.31 74.67 99.81 75.31 99.81 75.31C99.81 75.31 98.28 76.31 99.91 77.18C101.54 78.05 102.44 76.18 102.44 76.18" stroke="#263238" stroke-linecap="round" stroke-linejoin="round"/>
<path d="M99.48 51.21C95.5855 49.4325 91.2125 48.9923 87.0418 49.9581C82.8712 50.9239 79.1368 53.2415 76.42 56.55C67.93 66.35 74.78 75.81 79.2 80.55C82.7 84.33 87.45 86.43 89.2 87.55C90.8776 87.5242 92.5397 87.2236 94.12 86.66C96.5229 85.8002 98.66 84.3284 100.32 82.39C100.32 82.39 94.49 82.95 93.87 77.7C93.25 72.45 98.68 73 100.96 73.23C103.24 73.46 101.79 70.72 100.71 70.03C99.63 69.34 100.77 66.58 101.38 63.47C101.99 60.36 98.38 62.01 97.87 61.09C97.36 60.17 101 56 101 56C101 56 103.05 53 99.48 51.21Z" fill="#263238" stroke="#263238" stroke-linecap="round" stroke-linejoin="round"/>
<path d="M107.32 93.24C103.008 91.8703 98.5451 91.0308 94.03 90.74C86.58 90.27 82.77 93.63 82.77 93.63C82.77 93.63 88.23 93.9 97.1 94.51C105.97 95.12 107.32 93.24 107.32 93.24Z" fill="white" stroke="#263238" stroke-linecap="round" stroke-linejoin="round"/>
<path d="M142.3 66.81C142.3 66.81 156.61 45.2 156.65 42C156.69 38.8 155.49 33.52 155.65 31.52C155.81 29.52 156.23 28.7 156.46 26.41C156.69 24.12 158.86 25.5 158.6 28.07L158.85 29.54L161.33 17.78C161.33 17.78 163.03 16.52 163.33 17.84L162 25.74L162.71 25.85L164.42 16C164.42 16 164.67 14.88 166.23 15C166.23 15 167.07 15.22 166.99 17.36L165.65 26.62L166.36 26.94L167.91 16.74C167.91 16.74 168.56 15.95 169.07 16.57C169.553 17.4552 169.702 18.4842 169.49 19.47C169.38 20.61 168.59 28.39 168.59 28.39L170.04 22.53C170.04 22.53 171.49 20.96 171.34 23.81C170.926 27.3703 170.187 30.885 169.13 34.31C168.5 36.24 166.13 40.01 164.58 41.14C163.03 42.27 162.27 42.76 162.21 43.33C162.15 43.9 154.21 71.68 149.54 77.92C149.54 77.92 147.87 71.92 144.09 71.08C140.31 70.24 140.92 71.33 140.92 71.33L142.3 66.81Z" fill="white" stroke="#263238" stroke-linecap="round" stroke-linejoin="round"/>
<path d="M136.87 74.91C136.87 74.91 136.62 71.71 138.79 70.2C140.96 68.69 140.62 66.35 142.68 65.98C144.74 65.61 150.41 69.36 150.94 72.59C151.47 75.82 150.62 75.73 150.36 78.3C150.1 80.87 146.59 84.3 143.59 82.51C140.59 80.72 136.87 74.91 136.87 74.91Z" fill="white" stroke="#263238" stroke-linecap="round" stroke-linejoin="round"/>
<path d="M41.46 129.55C41.46 129.55 36.25 148.75 34.46 159.63C32.67 170.51 31.26 174.06 30.09 176.97C28.92 179.88 27.59 182.36 27.93 185.43C28.27 188.5 32.07 187.37 33.81 187.33C35.55 187.29 38.24 186.47 38.48 184.11C38.72 181.75 39.19 181.37 38.76 179.16C38.33 176.95 36.76 175.05 36.93 173.76C37.1 172.47 46.75 149.61 48.67 143.51C50.59 137.41 51.85 133.64 51.85 133.64C51.85 133.64 43.41 131.7 41.46 129.55Z" fill="white" stroke="#263238" stroke-linecap="round" stroke-linejoin="round"/>
<path d="M68.83 159C64.6 172.89 65.29 166 64.6 172.89C63.91 179.78 61.21 195.53 61.21 195.53L50.69 237.18C50.69 237.18 37.61 247.34 30.99 257.11C24.37 266.88 6.90002 287.9 6.90002 287.9C6.90002 287.9 10.75 288.56 12.17 289.9C13.59 291.24 16.88 294.62 16.88 294.62C19.1127 293.012 21.1001 291.089 22.78 288.91C29.33 280.47 39.22 273.28 46.87 265.81C54.52 258.34 63.8 250.73 69.96 241.81C73.08 236.71 88.88 196.46 88.88 196.46L92.14 196.36C92.14 196.36 108.44 221.65 110.71 224.92C112.98 228.19 120.15 240.84 120.15 240.84C120.15 240.84 107.88 250.65 104.66 258.84C101.44 267.03 85.43 296.57 84.42 297.98C83.7551 298.998 83.2744 300.125 83 301.31C83 301.31 88.9 302.99 91.88 303.51C93.5864 303.781 95.2216 304.39 96.69 305.3C96.69 305.3 97.53 303.43 98.41 301.14C99.2745 299.184 99.9185 297.138 100.33 295.04C100.49 293.54 116.66 277.4 125.59 262.04C134.52 246.68 138.82 242.78 139.37 239.58C139.92 236.38 131.9 212.8 128.12 200.92C124.34 189.04 114.23 175.44 113.91 174.32C113.59 173.2 112.6 161.61 112.6 161.61C112.6 161.61 106.05 162.03 92.39 161.94C84.4474 161.905 76.5376 160.918 68.83 159V159Z" fill="#263238" stroke="#263238" stroke-linecap="round" stroke-linejoin="round"/>
<path d="M78.5 192.23L88.88 196.39" stroke="white" stroke-linecap="round" stroke-linejoin="round"/>
<path d="M117.93 117.55C117.93 117.55 117.07 126.07 128.16 133.21C139.25 140.35 142.78 152.92 142.78 152.92L139.83 160.24L133.22 156.36C133.22 156.36 134.22 142.64 127.22 136.92C120.22 131.2 116.9 128.05 114.79 121.23C112.68 114.41 108.28 104.54 108.28 104.54C108.28 104.54 116.42 110.78 117.93 117.55Z" fill="#263238" stroke="#263238" stroke-linecap="round" stroke-linejoin="round"/>
<path d="M88.28 93.32C83.6028 93.0047 78.946 92.4372 74.33 91.62C68.68 90.47 63.76 93.43 63.02 97.96C62.28 102.49 43.3 124.51 43.16 125.96C43.02 127.41 50.06 131.85 53.31 131.03C56.56 130.21 69.43 117.1 69.43 117.1C69.43 117.1 69.81 147.42 68.78 151.92C67.75 156.42 66 159.43 68.36 161.68C70.72 163.93 88.71 165.77 97.99 165.27C107.27 164.77 112.66 162.73 112.99 159.59C113.32 156.45 113.81 148.71 114.24 144.43C114.67 140.15 119.24 112.64 119.24 112.64C119.24 112.64 132.4 96.64 138.49 90.64C144.58 84.64 146.87 81.97 147.22 78.55C147.57 75.13 143.06 71.21 140.06 72.34C137.06 73.47 128.85 83.34 124.25 86.02C119.65 88.7 112.95 89.48 110.12 91.79C107.29 94.1 104.06 94.63 98.64 94.08C93.22 93.53 88.28 93.32 88.28 93.32Z" fill="white" stroke="#263238" stroke-linecap="round" stroke-linejoin="round"/>
<path d="M65.69 102.94L69.44 117.07L61.58 106.11" stroke="#263238" stroke-linecap="round" stroke-linejoin="round"/>
<path d="M119.19 112.61L112.53 121.93" stroke="#263238" stroke-linecap="round" stroke-linejoin="round"/>
<path d="M106.34 135.31L105.25 137.13" stroke="#263238" stroke-linecap="round" stroke-linejoin="round"/>
<path d="M114.75 121.23L108.4 131.86" stroke="#263238" stroke-linecap="round" stroke-linejoin="round"/>
<path d="M85.92 128.23C89.62 137 95.42 149.45 100.51 154.53" stroke="#263238" stroke-linecap="round" stroke-linejoin="round"/>
<path d="M82.15 118.77C82.15 118.77 82.78 120.49 83.86 123.21" stroke="#263238" stroke-linecap="round" stroke-linejoin="round"/>
<path d="M85 136.18C85 136.18 92.28 149.18 96.07 154.18" stroke="#263238" stroke-linecap="round" stroke-linejoin="round"/>
<path d="M44.13 124.61C45.6997 126.062 47.4798 127.269 49.41 128.19C52.11 129.33 56.64 127.4 56.41 129.55C56.2569 131.072 55.6021 132.501 54.5486 133.611C53.495 134.72 52.1025 135.448 50.59 135.68C46.38 136.55 41.59 132.81 40.25 130.68C38.91 128.55 39.88 121.58 44.13 124.61Z" fill="white" stroke="#263238" stroke-linecap="round" stroke-linejoin="round"/>
<path d="M35 180.07C35 180.07 29.29 182.96 31.58 183.84C33.87 184.72 37.58 184.24 38.2 182.78" fill="white"/>
<path d="M35 180.07C35 180.07 29.29 182.96 31.58 183.84C33.87 184.72 37.58 184.24 38.2 182.78" stroke="#263238" stroke-linecap="round" stroke-linejoin="round"/>
<path d="M31.6 183.84L29.39 184.27" stroke="#263238" stroke-linecap="round" stroke-linejoin="round"/>
<path d="M96.69 305.18C96.69 305.18 102.2 313.98 106.19 317.18C110.18 320.38 110.79 320.18 110.66 321.55C110.53 322.92 107.1 323.74 101.27 323.15C95.44 322.56 90.57 318.34 85.17 315.43C79.77 312.52 78.3 311.59 79.38 308.76C80.4564 306.189 81.6646 303.676 83 301.23C83 301.23 90.71 301 96.69 305.18Z" fill="white" stroke="#263238" stroke-linecap="round" stroke-linejoin="round"/>
<path d="M79.38 308.72C79.38 308.72 83.53 310.21 91.83 316.1C100.13 321.99 105.94 322.78 110.66 321.51" fill="white"/>
<path d="M79.38 308.72C79.38 308.72 83.53 310.21 91.83 316.1C100.13 321.99 105.94 322.78 110.66 321.51" stroke="#263238" stroke-linecap="round" stroke-linejoin="round"/>
<path d="M16.88 294.58C16.88 294.58 16.95 301.76 18.05 305.73C19.15 309.7 21.9 313.54 20.64 314.39C19.38 315.24 18.09 315.49 15.64 314.17C13.19 312.85 10.1 310.17 6.91002 306.39C4.45305 303.777 2.57244 300.676 1.39001 297.29C-0.129987 293.4 0.700013 291.2 3.25001 290.1C4.5877 289.577 5.82823 288.833 6.92001 287.9C6.92001 287.9 14.33 287.51 16.88 294.58Z" fill="white" stroke="#263238" stroke-linecap="round" stroke-linejoin="round"/>
<path d="M1.64001 292C4.97644 294.829 7.69891 298.31 9.64001 302.23C13.31 309.23 17.17 313.11 20.64 314.42" fill="white"/>
<path d="M1.64001 292C4.97644 294.829 7.69891 298.31 9.64001 302.23C13.31 309.23 17.17 313.11 20.64 314.42" stroke="#263238" stroke-linecap="round" stroke-linejoin="round"/>
<path d="M75.55 336.64C94.7033 336.64 110.23 335.109 110.23 333.22C110.23 331.331 94.7033 329.8 75.55 329.8C56.3968 329.8 40.87 331.331 40.87 333.22C40.87 335.109 56.3968 336.64 75.55 336.64Z" fill="#263238"/>
<path d="M166.89 1.48001V10.55" stroke="white" stroke-linecap="round" stroke-linejoin="round"/>
<path d="M175.59 12L180.31 6.19" stroke="white" stroke-linecap="round" stroke-linejoin="round"/>
<path d="M153.1 9.10001L157.45 12.72" stroke="white" stroke-linecap="round" stroke-linejoin="round"/>
<path d="M148.02 21.07H155.64" stroke="white" stroke-linecap="round" stroke-linejoin="round"/>
<path d="M178.86 20.71H184.67" stroke="white" stroke-linecap="round" stroke-linejoin="round"/>
</svg>
