<svg width="173" height="26" viewBox="0 0 173 26" fill="none"><path d="M15.5884 11.5872C15.2518 11.1206 14.8375 10.7059 14.3196 10.317C13.8276 9.95414 13.232 9.66899 12.5587 9.43569C12.2998 9.35793 11.8596 9.25424 11.264 9.0987C10.7461 8.96909 10.2024 8.81356 9.65858 8.68395L9.42554 8.6321C8.80407 8.47657 8.2344 8.32104 7.7424 8.1655C7.22452 8.03589 6.93968 7.95813 6.88789 7.9322C6.24053 7.75075 5.69675 7.4656 5.28244 7.10269C4.89403 6.7657 4.71277 6.27318 4.71277 5.65105C4.71277 5.21037 4.81635 4.84746 5.0235 4.56231C5.23065 4.27717 5.4896 4.01795 5.80033 3.86241C6.13696 3.68096 6.49948 3.55135 6.88789 3.47358C7.3022 3.39581 7.69062 3.34397 8.07903 3.34397C9.21838 3.34397 10.1506 3.60319 10.8756 4.09571C11.5748 4.56231 11.9632 5.41775 12.0668 6.58425L12.0927 6.81755H16.0545V6.55832C16.0545 5.49551 15.8473 4.53639 15.4071 3.70688C14.9928 2.90329 14.4231 2.20339 13.6981 1.6331C12.9731 1.08873 12.1444 0.673978 11.2122 0.388833C10.2542 0.129611 9.27017 0 8.2085 0C7.3022 0 6.3959 0.129611 5.51549 0.362911C4.63508 0.596211 3.80647 0.959123 3.10732 1.47757C2.40817 1.97009 1.8126 2.61815 1.39829 3.36989C0.95809 4.12164 0.750936 5.05484 0.750936 6.09172C0.750936 6.63609 0.828619 7.15454 0.95809 7.67298C1.11346 8.19143 1.34651 8.70987 1.70903 9.17647C2.04565 9.64307 2.53764 10.0578 3.10732 10.4467C3.67699 10.8096 4.42793 11.1206 5.28244 11.3539C6.62895 11.7168 7.7683 12.0279 8.72639 12.2612C9.63269 12.4945 10.4613 12.7278 11.1346 12.987C11.4971 13.1166 11.8337 13.3499 12.1444 13.6869C12.4293 13.998 12.5846 14.4905 12.5846 15.1904C12.5846 15.5274 12.507 15.8644 12.3775 16.1755C12.248 16.4865 12.0409 16.7717 11.7301 17.0309C11.4194 17.2901 11.0051 17.4975 10.5131 17.653C9.99521 17.8086 9.37375 17.9123 8.64871 17.9123C7.97545 17.9123 7.3281 17.8345 6.75842 17.679C6.18874 17.5234 5.69675 17.2901 5.25655 16.9791C4.84224 16.668 4.50561 16.2532 4.24667 15.7607C4.01362 15.2682 3.88415 14.6461 3.88415 13.9462V13.6869H0V13.9462C0.0258943 15.1904 0.258943 16.3051 0.725041 17.2124C1.19114 18.1456 1.8126 18.8973 2.56354 19.4935C3.31447 20.0897 4.22078 20.5304 5.25655 20.8156C6.26643 21.1007 7.35399 21.2303 8.49334 21.2303C9.47732 21.2303 10.4613 21.1007 11.4194 20.8674C12.3775 20.6341 13.2579 20.2453 14.0088 19.7268C14.7857 19.2084 15.4071 18.5344 15.8732 17.7308C16.3393 16.9013 16.5724 15.9163 16.5724 14.7757C16.5724 14.2313 16.4947 13.6869 16.3393 13.1426C16.184 12.5723 15.925 12.0538 15.5884 11.5872Z" fill="#FC5579"></path><path d="M27.448 14.4645C27.448 14.9829 27.3962 15.5014 27.2667 15.9421C27.1631 16.3827 26.9819 16.7716 26.7229 17.0826C26.464 17.3937 26.1532 17.6529 25.7389 17.8344C25.3246 18.0158 24.8067 18.1195 24.1853 18.1195C23.3826 18.1195 22.787 17.8862 22.3727 17.4196C21.9325 16.953 21.7253 16.1235 21.7253 14.957V5.91016H18.0742V15.2422C18.0742 17.1863 18.5144 18.6639 19.3948 19.623C20.2752 20.6081 21.7253 21.1006 23.6674 21.1006C24.496 21.1006 25.3246 20.8673 26.1274 20.4266C26.697 20.1155 27.1631 19.7267 27.5256 19.2601V20.7377H31.125V5.91016H27.448V14.4645Z" fill="#FC5579"></path><path d="M46.3768 7.85449C45.8072 7.12866 45.0821 6.55837 44.2017 6.14362C43.3213 5.72886 42.3114 5.52148 41.1462 5.52148C40.1881 5.52148 39.2818 5.70294 38.4791 6.09177C37.8835 6.37692 37.3656 6.79167 36.9513 7.31012V5.91032H33.4556V26H37.1326V19.3121C37.2879 19.4936 37.4692 19.675 37.6763 19.8046C38.0389 20.1157 38.4532 20.349 38.9193 20.5564C39.3595 20.7378 39.8256 20.8934 40.2917 20.9711C40.7578 21.0489 41.2498 21.1007 41.7159 21.1007C42.8034 21.1007 43.7615 20.8934 44.5642 20.4527C45.3669 20.012 46.0402 19.4417 46.5581 18.7159C47.076 17.9901 47.4644 17.1606 47.7233 16.2533C47.9823 15.346 48.1117 14.361 48.1117 13.4018C48.1117 12.339 47.9564 11.3021 47.6974 10.3689C47.3867 9.40982 46.9465 8.55439 46.3768 7.85449ZM44.4348 13.3241C44.4348 13.9203 44.3571 14.5165 44.2276 15.1127C44.0981 15.683 43.891 16.1755 43.5802 16.6162C43.2695 17.0569 42.907 17.4198 42.4409 17.679C41.9748 17.9382 41.431 18.0938 40.7578 18.0938C40.1622 18.0938 39.6184 17.9642 39.1782 17.7309C38.738 17.4976 38.3237 17.1606 38.013 16.7458C37.6763 16.3311 37.4433 15.8385 37.262 15.2423C37.1067 14.6461 37.0031 13.9981 37.0031 13.2982C37.0031 11.8206 37.3138 10.6541 37.9612 9.77273C38.5826 8.9173 39.4889 8.50254 40.7578 8.50254C41.3533 8.50254 41.8971 8.63215 42.3373 8.89137C42.8034 9.1506 43.1918 9.51351 43.5026 9.95419C43.8133 10.3949 44.0463 10.9133 44.2017 11.4836C44.3571 12.1057 44.4348 12.7019 44.4348 13.3241Z" fill="#FC5579"></path><path d="M62.1464 8.19147C61.5249 7.38789 60.7481 6.73983 59.8418 6.24731C58.9096 5.75478 57.848 5.52148 56.7086 5.52148C55.621 5.52148 54.6112 5.72886 53.7308 6.14362C52.8503 6.55837 52.0994 7.12866 51.4779 7.85448C50.8565 8.55438 50.3904 9.40982 50.0538 10.343C49.7171 11.2762 49.5618 12.2872 49.5618 13.3241C49.5618 14.4647 49.7171 15.5015 50.0279 16.4347C50.3386 17.3939 50.8047 18.2234 51.4262 18.8974C52.0476 19.5973 52.8245 20.1416 53.7049 20.5045C54.6112 20.8934 55.6469 21.0748 56.7863 21.0748C57.589 21.0748 58.3658 20.9711 59.0909 20.7378C59.8159 20.5305 60.4892 20.1935 61.0847 19.7528C61.6803 19.3121 62.1982 18.7937 62.6125 18.1456C63.0268 17.5235 63.3375 16.7977 63.4929 15.9941L63.5706 15.683H60.0749L60.0231 15.8645C59.7641 16.5903 59.3757 17.1606 58.8578 17.5235C58.3399 17.8864 57.6408 18.0678 56.7863 18.0678C56.1648 18.0678 55.621 17.9642 55.1808 17.7568C54.7406 17.5494 54.3781 17.2643 54.0933 16.9013C53.8084 16.5384 53.5754 16.1237 53.4459 15.6312C53.3164 15.2164 53.2388 14.8016 53.2388 14.361H63.7001L63.726 14.1277C63.8554 13.0389 63.7778 11.9502 63.5188 10.9133C63.2081 9.92826 62.742 8.99506 62.1464 8.19147ZM59.9972 11.7947H53.2129C53.2388 11.4058 53.3423 11.017 53.4977 10.6541C53.679 10.2134 53.912 9.8505 54.2227 9.53943C54.5076 9.22836 54.8701 8.96914 55.2844 8.78769C55.6987 8.60623 56.1648 8.52846 56.6827 8.52846C57.1747 8.52846 57.6149 8.63215 58.0292 8.81361C58.4176 9.02099 58.7801 9.28021 59.065 9.59127C59.3498 9.90234 59.5829 10.2912 59.7382 10.7059C59.8418 11.0688 59.9454 11.4318 59.9972 11.7947Z" fill="#FC5579"></path><path d="M73.3328 5.57333L73.2293 5.54741C73.0739 5.52148 72.815 5.52148 72.4265 5.52148C71.9087 5.52148 71.4167 5.62517 70.9247 5.80663C70.4327 5.98808 69.9925 6.24731 69.6041 6.5843C69.2156 6.89536 68.879 7.25827 68.5942 7.64711C68.5424 7.69895 68.5165 7.77672 68.4647 7.82856V5.91032H64.9949V20.7119H68.646V13.6611C68.646 12.9093 68.7496 12.2094 68.9308 11.6391C69.1121 11.0688 69.3969 10.5763 69.7076 10.1875C70.0184 9.79865 70.4068 9.51351 70.847 9.30613C71.2872 9.09875 71.7533 9.02099 72.2453 9.02099C72.4524 9.02099 72.6596 9.04691 72.8926 9.07283C73.1257 9.09875 73.3328 9.12468 73.5659 9.17652L73.8766 9.22836V5.62517L73.6436 5.59925C73.5659 5.59925 73.4623 5.57333 73.3328 5.57333Z" fill="#FC5579"></path><path d="M81.3341 3.73275C81.593 3.5513 81.9038 3.47353 82.2922 3.47353C82.6029 3.47353 82.8618 3.49945 83.069 3.49945C83.2762 3.52538 83.4833 3.57722 83.6905 3.62906L84.0271 3.70683V0.725775L83.8458 0.673931C83.3538 0.544319 82.6029 0.466553 81.5671 0.466553C81.0234 0.466553 80.5314 0.518397 80.0394 0.622086C79.5215 0.725775 79.0813 0.959075 78.667 1.29606C78.2785 1.63305 77.9419 2.09965 77.7089 2.69586C77.4758 3.29208 77.3722 4.04382 77.3722 4.97702V5.91022H75.0159V8.78759H77.3722V20.7118H81.0492V8.78759H83.7164V5.91022H81.0492V4.7178C80.9975 4.19935 81.101 3.88829 81.3341 3.73275Z" fill="#FC5579"></path><path d="M96.819 7.72492C96.1716 7.05094 95.3948 6.48065 94.4626 6.09182C93.5304 5.70298 92.4946 5.49561 91.3035 5.49561C90.1124 5.49561 89.0766 5.70298 88.1444 6.09182C87.2122 6.48065 86.4354 7.02502 85.788 7.72492C85.1407 8.3989 84.6487 9.25433 84.3379 10.1875C84.0013 11.1207 83.8459 12.1835 83.8459 13.2723C83.8459 14.4129 84.0013 15.4497 84.3379 16.3829C84.6746 17.3421 85.1666 18.1716 85.788 18.8456C86.4354 19.5455 87.2122 20.0898 88.1444 20.4787C89.0766 20.8675 90.1124 21.0749 91.3035 21.0749C92.4946 21.0749 93.5304 20.8675 94.4626 20.4787C95.3948 20.0898 96.1716 19.5455 96.819 18.8456C97.4663 18.1716 97.9583 17.3421 98.2691 16.3829C98.6057 15.4497 98.7611 14.3869 98.7611 13.2464C98.7611 12.1317 98.6057 11.0948 98.2691 10.1616C97.9583 9.25433 97.4663 8.42482 96.819 7.72492ZM95.1359 13.2982C95.1359 13.8944 95.0582 14.4906 94.9028 15.0609C94.7474 15.6312 94.5144 16.1496 94.2037 16.5903C93.8929 17.031 93.5045 17.3939 93.0125 17.6791C92.5464 17.9383 91.9768 18.0938 91.3294 18.0938C90.682 18.0938 90.1124 17.9642 89.6463 17.6791C89.1543 17.3939 88.7659 17.031 88.4551 16.5903C88.1444 16.1496 87.9114 15.6312 87.756 15.0609C87.6006 14.4906 87.5229 13.8944 87.5229 13.2982C87.5229 12.7279 87.6006 12.1317 87.756 11.5355C87.9114 10.9652 88.1444 10.4468 88.4551 10.0061C88.7659 9.5654 89.1543 9.20249 89.6463 8.94326C90.1124 8.68404 90.682 8.52851 91.3294 8.52851C91.9768 8.52851 92.5464 8.65812 93.0125 8.94326C93.5045 9.22841 93.8929 9.5654 94.2037 10.0061C94.5144 10.4468 94.7474 10.9652 94.9028 11.5355C95.0582 12.1317 95.1359 12.7279 95.1359 13.2982Z" fill="#FC5579"></path><path d="M108.653 5.57333L108.549 5.54741C108.394 5.52148 108.135 5.52148 107.746 5.52148C107.229 5.52148 106.737 5.62517 106.245 5.80663C105.753 5.98808 105.312 6.24731 104.924 6.5843C104.535 6.89536 104.199 7.25827 103.914 7.64711C103.862 7.69895 103.836 7.77672 103.785 7.82856V5.91032H100.315V20.7119H103.966V13.6611C103.966 12.9093 104.069 12.2094 104.251 11.6391C104.432 11.0688 104.717 10.5763 105.027 10.1875C105.338 9.79865 105.727 9.51351 106.167 9.30613C106.607 9.09875 107.073 9.02099 107.565 9.02099C107.772 9.02099 107.979 9.04691 108.212 9.07283C108.446 9.09875 108.653 9.12468 108.886 9.17652L109.196 9.22836V5.62517L108.963 5.59925C108.886 5.59925 108.782 5.57333 108.653 5.57333Z" fill="#FC5579"></path><path d="M126.779 5.52153C125.691 5.52153 124.759 5.75483 124.034 6.19551C123.412 6.55842 122.869 7.05094 122.377 7.64715C122.04 6.97317 121.522 6.48065 120.849 6.11774C120.072 5.70298 119.218 5.49561 118.311 5.49561C117.716 5.49561 117.198 5.54745 116.732 5.67706C116.266 5.80667 115.851 5.96221 115.489 6.19551C115.126 6.40288 114.79 6.68803 114.505 6.9991C114.375 7.15463 114.22 7.31016 114.09 7.4657V5.88444H110.595V20.686H114.246V11.9762C114.246 11.4318 114.324 10.9134 114.479 10.4986C114.634 10.0838 114.867 9.72093 115.126 9.40986C115.385 9.12472 115.696 8.91734 116.033 8.76181C116.369 8.60627 116.732 8.52851 117.094 8.52851C117.949 8.52851 118.544 8.73589 118.855 9.17656C119.192 9.64316 119.347 10.3431 119.347 11.2763V20.712H122.998V12.0799C122.998 10.9393 123.231 10.032 123.671 9.40986C124.112 8.81365 124.785 8.52851 125.769 8.52851C126.338 8.52851 126.779 8.60627 127.089 8.78773C127.4 8.94326 127.607 9.17656 127.763 9.46171C127.918 9.77277 128.022 10.1357 128.048 10.5764C128.073 11.043 128.099 11.5614 128.099 12.1058V20.712H131.776V10.6023C131.776 8.81365 131.336 7.49162 130.43 6.71395C129.601 5.91036 128.358 5.52153 126.779 5.52153Z" fill="#FC5579"></path><path d="M143.429 14.4645C143.429 14.9829 143.377 15.5014 143.247 15.9421C143.144 16.3827 142.963 16.7716 142.704 17.0826C142.445 17.3937 142.134 17.627 141.72 17.8344C141.305 18.0158 140.787 18.1195 140.166 18.1195C139.363 18.1195 138.768 17.8862 138.353 17.4196C137.913 16.953 137.706 16.1235 137.706 14.957V5.91016H134.055V15.2422C134.055 17.1863 134.495 18.6639 135.376 19.623C136.256 20.6081 137.706 21.1006 139.648 21.1006C140.477 21.1006 141.305 20.8673 142.108 20.4266C142.678 20.1155 143.144 19.7267 143.506 19.2601V20.7377H147.106V5.91016H143.429V14.4645V14.4645Z" fill="#FC5579"></path><path d="M153.113 0.466553H149.436V20.7118H153.113V0.466553Z" fill="#FC5579"></path><path d="M165.983 6.50644C165.413 6.16945 164.765 5.91022 164.066 5.75469C162.59 5.44362 161.037 5.46955 159.587 5.75469C158.81 5.91022 158.085 6.16945 157.463 6.55828C156.842 6.94711 156.298 7.46556 155.91 8.11361C155.495 8.76167 155.262 9.56526 155.211 10.5244L155.185 10.8095H158.836L158.862 10.5762C158.939 9.87633 159.198 9.3838 159.716 9.04682C160.441 8.58022 161.425 8.42468 162.72 8.60614C163.056 8.65798 163.341 8.73575 163.6 8.86536C163.859 8.99497 164.066 9.1505 164.222 9.3838C164.377 9.59118 164.455 9.87633 164.455 10.2133C164.455 10.6021 164.377 10.8873 164.196 11.0687C163.989 11.2761 163.73 11.4057 163.367 11.5094C162.979 11.6131 162.539 11.6909 162.047 11.7427C161.529 11.7946 160.959 11.8723 160.415 11.976C159.742 12.0538 159.069 12.1575 158.421 12.2871C157.748 12.4426 157.127 12.6759 156.583 12.987C156.013 13.324 155.573 13.7906 155.236 14.3868C154.9 14.983 154.719 15.7348 154.719 16.668C154.719 17.3938 154.874 18.0678 155.159 18.6121C155.444 19.1565 155.832 19.649 156.298 20.0119C156.764 20.3748 157.334 20.6341 157.929 20.8155C158.551 20.997 159.198 21.1007 159.846 21.1007C160.7 21.1007 161.632 20.9451 162.564 20.6859C163.212 20.4785 164.066 19.9342 164.558 19.5972L164.61 20.5304H167.951V9.92817C167.951 9.12458 167.769 8.42468 167.407 7.88031C167.018 7.31002 166.552 6.84342 165.983 6.50644ZM164.248 13.7387V15.657C164.248 16.0977 164.144 16.4606 163.937 16.7716C163.73 17.0827 163.445 17.3419 163.108 17.5493C162.772 17.7567 162.409 17.9122 162.047 17.99C161.658 18.0678 161.296 18.1196 160.985 18.1196C160.726 18.1196 160.415 18.0937 160.105 18.0418C159.794 17.99 159.509 17.9122 159.25 17.7826C158.991 17.653 158.784 17.4975 158.603 17.2901C158.447 17.1086 158.37 16.8753 158.37 16.5643C158.37 16.2014 158.421 15.8903 158.551 15.6311C158.68 15.3978 158.836 15.1904 159.043 15.0349C159.25 14.8793 159.509 14.7497 159.794 14.646C160.105 14.5423 160.415 14.4646 160.726 14.4127C161.425 14.2831 162.098 14.1794 162.798 14.1276C163.315 14.0757 163.807 13.9461 164.248 13.7387Z" fill="#FC5579"></path><path d="M170.929 16.5125H170.825C169.686 16.5125 168.753 17.4456 168.753 18.5862C168.753 19.7268 169.686 20.66 170.825 20.66H170.929C172.068 20.66 173 19.7268 173 18.5862C173 17.4456 172.068 16.5125 170.929 16.5125Z" fill="#FC5579"></path></svg>